<?xml version="1.0" encoding="UTF-8"?>
<svg xmlns="http://www.w3.org/2000/svg" xmlns:xlink="http://www.w3.org/1999/xlink" width="3750" height="2250" viewBox="0 0 3750 2250">
<defs>
<clipPath id="clip-0">
<path clip-rule="nonzero" d="M 12.054688 13.441406 L 3740.160156 13.441406 L 3740.160156 2237.25 L 12.054688 2237.25 Z M 12.054688 13.441406 "/>
</clipPath>
<linearGradient id="linear-pattern-0" gradientUnits="userSpaceOnUse" x1="-0.0495142" y1="0" x2="1.45042" y2="0" gradientTransform="matrix(1.15603, 1484.54, 1484.54, -1.15603, 1855.96, 85.51)">
<stop offset="0" stop-color="rgb(50.195312%, 89.802551%, 100%)" stop-opacity="1"/>
<stop offset="0.03125" stop-color="rgb(50.195312%, 89.802551%, 100%)" stop-opacity="1"/>
<stop offset="0.0351562" stop-color="rgb(50.421143%, 89.848328%, 100%)" stop-opacity="1"/>
<stop offset="0.0390625" stop-color="rgb(50.646973%, 89.89563%, 100%)" stop-opacity="1"/>
<stop offset="0.0429687" stop-color="rgb(50.938416%, 89.955139%, 100%)" stop-opacity="1"/>
<stop offset="0.046875" stop-color="rgb(51.231384%, 90.014648%, 100%)" stop-opacity="1"/>
<stop offset="0.0507812" stop-color="rgb(51.522827%, 90.074158%, 100%)" stop-opacity="1"/>
<stop offset="0.0546875" stop-color="rgb(51.81427%, 90.135193%, 100%)" stop-opacity="1"/>
<stop offset="0.0585938" stop-color="rgb(52.105713%, 90.194702%, 100%)" stop-opacity="1"/>
<stop offset="0.0625" stop-color="rgb(52.398682%, 90.254211%, 100%)" stop-opacity="1"/>
<stop offset="0.0664062" stop-color="rgb(52.690125%, 90.313721%, 100%)" stop-opacity="1"/>
<stop offset="0.0703125" stop-color="rgb(52.981567%, 90.37323%, 100%)" stop-opacity="1"/>
<stop offset="0.0742188" stop-color="rgb(53.27301%, 90.432739%, 100%)" stop-opacity="1"/>
<stop offset="0.078125" stop-color="rgb(53.565979%, 90.493774%, 100%)" stop-opacity="1"/>
<stop offset="0.0820312" stop-color="rgb(53.857422%, 90.553284%, 100%)" stop-opacity="1"/>
<stop offset="0.0859375" stop-color="rgb(54.148865%, 90.612793%, 100%)" stop-opacity="1"/>
<stop offset="0.0898437" stop-color="rgb(54.440308%, 90.672302%, 100%)" stop-opacity="1"/>
<stop offset="0.09375" stop-color="rgb(54.733276%, 90.731812%, 100%)" stop-opacity="1"/>
<stop offset="0.0976562" stop-color="rgb(55.024719%, 90.791321%, 100%)" stop-opacity="1"/>
<stop offset="0.101562" stop-color="rgb(55.316162%, 90.85083%, 100%)" stop-opacity="1"/>
<stop offset="0.105469" stop-color="rgb(55.607605%, 90.910339%, 100%)" stop-opacity="1"/>
<stop offset="0.109375" stop-color="rgb(55.900574%, 90.971375%, 100%)" stop-opacity="1"/>
<stop offset="0.113281" stop-color="rgb(56.192017%, 91.030884%, 100%)" stop-opacity="1"/>
<stop offset="0.117188" stop-color="rgb(56.483459%, 91.090393%, 100%)" stop-opacity="1"/>
<stop offset="0.121094" stop-color="rgb(56.774902%, 91.149902%, 100%)" stop-opacity="1"/>
<stop offset="0.125" stop-color="rgb(57.067871%, 91.209412%, 100%)" stop-opacity="1"/>
<stop offset="0.128906" stop-color="rgb(57.359314%, 91.268921%, 100%)" stop-opacity="1"/>
<stop offset="0.132812" stop-color="rgb(57.650757%, 91.329956%, 100%)" stop-opacity="1"/>
<stop offset="0.136719" stop-color="rgb(57.9422%, 91.389465%, 100%)" stop-opacity="1"/>
<stop offset="0.140625" stop-color="rgb(58.233643%, 91.448975%, 100%)" stop-opacity="1"/>
<stop offset="0.144531" stop-color="rgb(58.525085%, 91.508484%, 100%)" stop-opacity="1"/>
<stop offset="0.148438" stop-color="rgb(58.818054%, 91.567993%, 100%)" stop-opacity="1"/>
<stop offset="0.152344" stop-color="rgb(59.109497%, 91.627502%, 100%)" stop-opacity="1"/>
<stop offset="0.15625" stop-color="rgb(59.40094%, 91.688538%, 100%)" stop-opacity="1"/>
<stop offset="0.160156" stop-color="rgb(59.692383%, 91.748047%, 100%)" stop-opacity="1"/>
<stop offset="0.164062" stop-color="rgb(59.985352%, 91.807556%, 100%)" stop-opacity="1"/>
<stop offset="0.167969" stop-color="rgb(60.276794%, 91.867065%, 100%)" stop-opacity="1"/>
<stop offset="0.171875" stop-color="rgb(60.568237%, 91.926575%, 100%)" stop-opacity="1"/>
<stop offset="0.175781" stop-color="rgb(60.85968%, 91.986084%, 100%)" stop-opacity="1"/>
<stop offset="0.179687" stop-color="rgb(61.152649%, 92.045593%, 100%)" stop-opacity="1"/>
<stop offset="0.183594" stop-color="rgb(61.444092%, 92.105103%, 100%)" stop-opacity="1"/>
<stop offset="0.1875" stop-color="rgb(61.735535%, 92.166138%, 100%)" stop-opacity="1"/>
<stop offset="0.191406" stop-color="rgb(62.026978%, 92.225647%, 100%)" stop-opacity="1"/>
<stop offset="0.195312" stop-color="rgb(62.319946%, 92.285156%, 100%)" stop-opacity="1"/>
<stop offset="0.199219" stop-color="rgb(62.611389%, 92.344666%, 100%)" stop-opacity="1"/>
<stop offset="0.203125" stop-color="rgb(62.902832%, 92.404175%, 100%)" stop-opacity="1"/>
<stop offset="0.207031" stop-color="rgb(63.194275%, 92.463684%, 100%)" stop-opacity="1"/>
<stop offset="0.210937" stop-color="rgb(63.487244%, 92.524719%, 100%)" stop-opacity="1"/>
<stop offset="0.214844" stop-color="rgb(63.778687%, 92.584229%, 100%)" stop-opacity="1"/>
<stop offset="0.21875" stop-color="rgb(64.070129%, 92.643738%, 100%)" stop-opacity="1"/>
<stop offset="0.222656" stop-color="rgb(64.361572%, 92.703247%, 100%)" stop-opacity="1"/>
<stop offset="0.226562" stop-color="rgb(64.654541%, 92.762756%, 100%)" stop-opacity="1"/>
<stop offset="0.230469" stop-color="rgb(64.945984%, 92.822266%, 100%)" stop-opacity="1"/>
<stop offset="0.234375" stop-color="rgb(65.237427%, 92.883301%, 100%)" stop-opacity="1"/>
<stop offset="0.238281" stop-color="rgb(65.52887%, 92.94281%, 100%)" stop-opacity="1"/>
<stop offset="0.242188" stop-color="rgb(65.821838%, 93.002319%, 100%)" stop-opacity="1"/>
<stop offset="0.246094" stop-color="rgb(66.113281%, 93.061829%, 100%)" stop-opacity="1"/>
<stop offset="0.25" stop-color="rgb(66.404724%, 93.121338%, 100%)" stop-opacity="1"/>
<stop offset="0.253906" stop-color="rgb(66.696167%, 93.180847%, 100%)" stop-opacity="1"/>
<stop offset="0.257812" stop-color="rgb(66.989136%, 93.241882%, 100%)" stop-opacity="1"/>
<stop offset="0.261719" stop-color="rgb(67.280579%, 93.301392%, 100%)" stop-opacity="1"/>
<stop offset="0.265625" stop-color="rgb(67.572021%, 93.360901%, 100%)" stop-opacity="1"/>
<stop offset="0.269531" stop-color="rgb(67.863464%, 93.42041%, 100%)" stop-opacity="1"/>
<stop offset="0.273438" stop-color="rgb(68.156433%, 93.479919%, 100%)" stop-opacity="1"/>
<stop offset="0.277344" stop-color="rgb(68.447876%, 93.539429%, 100%)" stop-opacity="1"/>
<stop offset="0.28125" stop-color="rgb(68.739319%, 93.598938%, 100%)" stop-opacity="1"/>
<stop offset="0.285156" stop-color="rgb(69.030762%, 93.658447%, 100%)" stop-opacity="1"/>
<stop offset="0.289062" stop-color="rgb(69.32373%, 93.719482%, 100%)" stop-opacity="1"/>
<stop offset="0.292969" stop-color="rgb(69.615173%, 93.778992%, 100%)" stop-opacity="1"/>
<stop offset="0.296875" stop-color="rgb(69.906616%, 93.838501%, 100%)" stop-opacity="1"/>
<stop offset="0.300781" stop-color="rgb(70.198059%, 93.89801%, 100%)" stop-opacity="1"/>
<stop offset="0.304687" stop-color="rgb(70.491028%, 93.95752%, 100%)" stop-opacity="1"/>
<stop offset="0.308594" stop-color="rgb(70.782471%, 94.017029%, 100%)" stop-opacity="1"/>
<stop offset="0.3125" stop-color="rgb(71.073914%, 94.078064%, 100%)" stop-opacity="1"/>
<stop offset="0.316406" stop-color="rgb(71.365356%, 94.137573%, 100%)" stop-opacity="1"/>
<stop offset="0.320312" stop-color="rgb(71.656799%, 94.197083%, 100%)" stop-opacity="1"/>
<stop offset="0.324219" stop-color="rgb(71.948242%, 94.256592%, 100%)" stop-opacity="1"/>
<stop offset="0.328125" stop-color="rgb(72.241211%, 94.316101%, 100%)" stop-opacity="1"/>
<stop offset="0.332031" stop-color="rgb(72.532654%, 94.37561%, 100%)" stop-opacity="1"/>
<stop offset="0.335937" stop-color="rgb(72.824097%, 94.436646%, 100%)" stop-opacity="1"/>
<stop offset="0.339844" stop-color="rgb(73.11554%, 94.496155%, 100%)" stop-opacity="1"/>
<stop offset="0.34375" stop-color="rgb(73.408508%, 94.555664%, 100%)" stop-opacity="1"/>
<stop offset="0.347656" stop-color="rgb(73.699951%, 94.615173%, 100%)" stop-opacity="1"/>
<stop offset="0.351562" stop-color="rgb(73.991394%, 94.674683%, 100%)" stop-opacity="1"/>
<stop offset="0.355469" stop-color="rgb(74.282837%, 94.734192%, 100%)" stop-opacity="1"/>
<stop offset="0.359375" stop-color="rgb(74.575806%, 94.793701%, 100%)" stop-opacity="1"/>
<stop offset="0.363281" stop-color="rgb(74.867249%, 94.85321%, 100%)" stop-opacity="1"/>
<stop offset="0.367187" stop-color="rgb(75.158691%, 94.914246%, 100%)" stop-opacity="1"/>
<stop offset="0.371094" stop-color="rgb(75.450134%, 94.973755%, 100%)" stop-opacity="1"/>
<stop offset="0.375" stop-color="rgb(75.743103%, 95.033264%, 100%)" stop-opacity="1"/>
<stop offset="0.378906" stop-color="rgb(76.034546%, 95.092773%, 100%)" stop-opacity="1"/>
<stop offset="0.382812" stop-color="rgb(76.325989%, 95.152283%, 100%)" stop-opacity="1"/>
<stop offset="0.386719" stop-color="rgb(76.617432%, 95.211792%, 100%)" stop-opacity="1"/>
<stop offset="0.390625" stop-color="rgb(76.9104%, 95.272827%, 100%)" stop-opacity="1"/>
<stop offset="0.394531" stop-color="rgb(77.201843%, 95.332336%, 100%)" stop-opacity="1"/>
<stop offset="0.398437" stop-color="rgb(77.493286%, 95.391846%, 100%)" stop-opacity="1"/>
<stop offset="0.402344" stop-color="rgb(77.784729%, 95.451355%, 100%)" stop-opacity="1"/>
<stop offset="0.40625" stop-color="rgb(78.077698%, 95.510864%, 100%)" stop-opacity="1"/>
<stop offset="0.410156" stop-color="rgb(78.369141%, 95.570374%, 100%)" stop-opacity="1"/>
<stop offset="0.414063" stop-color="rgb(78.660583%, 95.631409%, 100%)" stop-opacity="1"/>
<stop offset="0.417969" stop-color="rgb(78.952026%, 95.690918%, 100%)" stop-opacity="1"/>
<stop offset="0.421875" stop-color="rgb(79.244995%, 95.750427%, 100%)" stop-opacity="1"/>
<stop offset="0.425781" stop-color="rgb(79.536438%, 95.809937%, 100%)" stop-opacity="1"/>
<stop offset="0.429688" stop-color="rgb(79.827881%, 95.869446%, 100%)" stop-opacity="1"/>
<stop offset="0.433594" stop-color="rgb(80.119324%, 95.928955%, 100%)" stop-opacity="1"/>
<stop offset="0.4375" stop-color="rgb(80.412292%, 95.988464%, 100%)" stop-opacity="1"/>
<stop offset="0.441406" stop-color="rgb(80.703735%, 96.047974%, 100%)" stop-opacity="1"/>
<stop offset="0.445313" stop-color="rgb(80.995178%, 96.109009%, 100%)" stop-opacity="1"/>
<stop offset="0.449219" stop-color="rgb(81.286621%, 96.168518%, 100%)" stop-opacity="1"/>
<stop offset="0.453125" stop-color="rgb(81.57959%, 96.228027%, 100%)" stop-opacity="1"/>
<stop offset="0.457031" stop-color="rgb(81.871033%, 96.287537%, 100%)" stop-opacity="1"/>
<stop offset="0.460938" stop-color="rgb(82.162476%, 96.347046%, 100%)" stop-opacity="1"/>
<stop offset="0.464844" stop-color="rgb(82.453918%, 96.406555%, 100%)" stop-opacity="1"/>
<stop offset="0.46875" stop-color="rgb(82.746887%, 96.46759%, 100%)" stop-opacity="1"/>
<stop offset="0.472656" stop-color="rgb(83.03833%, 96.5271%, 100%)" stop-opacity="1"/>
<stop offset="0.476562" stop-color="rgb(83.329773%, 96.586609%, 100%)" stop-opacity="1"/>
<stop offset="0.480469" stop-color="rgb(83.621216%, 96.646118%, 100%)" stop-opacity="1"/>
<stop offset="0.484375" stop-color="rgb(83.912659%, 96.705627%, 100%)" stop-opacity="1"/>
<stop offset="0.488281" stop-color="rgb(84.204102%, 96.765137%, 100%)" stop-opacity="1"/>
<stop offset="0.492188" stop-color="rgb(84.49707%, 96.826172%, 100%)" stop-opacity="1"/>
<stop offset="0.496094" stop-color="rgb(84.788513%, 96.885681%, 100%)" stop-opacity="1"/>
<stop offset="0.5" stop-color="rgb(85.079956%, 96.94519%, 100%)" stop-opacity="1"/>
<stop offset="0.503906" stop-color="rgb(85.371399%, 97.0047%, 100%)" stop-opacity="1"/>
<stop offset="0.507812" stop-color="rgb(85.664368%, 97.064209%, 100%)" stop-opacity="1"/>
<stop offset="0.511719" stop-color="rgb(85.955811%, 97.123718%, 100%)" stop-opacity="1"/>
<stop offset="0.515625" stop-color="rgb(86.247253%, 97.183228%, 100%)" stop-opacity="1"/>
<stop offset="0.519531" stop-color="rgb(86.538696%, 97.242737%, 100%)" stop-opacity="1"/>
<stop offset="0.523437" stop-color="rgb(86.831665%, 97.303772%, 100%)" stop-opacity="1"/>
<stop offset="0.527344" stop-color="rgb(87.123108%, 97.363281%, 100%)" stop-opacity="1"/>
<stop offset="0.53125" stop-color="rgb(87.414551%, 97.422791%, 100%)" stop-opacity="1"/>
<stop offset="0.535156" stop-color="rgb(87.705994%, 97.4823%, 100%)" stop-opacity="1"/>
<stop offset="0.539062" stop-color="rgb(87.998962%, 97.541809%, 100%)" stop-opacity="1"/>
<stop offset="0.542969" stop-color="rgb(88.290405%, 97.601318%, 100%)" stop-opacity="1"/>
<stop offset="0.546875" stop-color="rgb(88.581848%, 97.662354%, 100%)" stop-opacity="1"/>
<stop offset="0.550781" stop-color="rgb(88.873291%, 97.721863%, 100%)" stop-opacity="1"/>
<stop offset="0.554687" stop-color="rgb(89.16626%, 97.781372%, 100%)" stop-opacity="1"/>
<stop offset="0.558594" stop-color="rgb(89.457703%, 97.840881%, 100%)" stop-opacity="1"/>
<stop offset="0.5625" stop-color="rgb(89.749146%, 97.900391%, 100%)" stop-opacity="1"/>
<stop offset="0.566406" stop-color="rgb(90.040588%, 97.9599%, 100%)" stop-opacity="1"/>
<stop offset="0.570312" stop-color="rgb(90.333557%, 98.020935%, 100%)" stop-opacity="1"/>
<stop offset="0.574219" stop-color="rgb(90.625%, 98.080444%, 100%)" stop-opacity="1"/>
<stop offset="0.578125" stop-color="rgb(90.916443%, 98.139954%, 100%)" stop-opacity="1"/>
<stop offset="0.582031" stop-color="rgb(91.207886%, 98.199463%, 100%)" stop-opacity="1"/>
<stop offset="0.585938" stop-color="rgb(91.500854%, 98.258972%, 100%)" stop-opacity="1"/>
<stop offset="0.589844" stop-color="rgb(91.792297%, 98.318481%, 100%)" stop-opacity="1"/>
<stop offset="0.59375" stop-color="rgb(92.08374%, 98.379517%, 100%)" stop-opacity="1"/>
<stop offset="0.597656" stop-color="rgb(92.375183%, 98.439026%, 100%)" stop-opacity="1"/>
<stop offset="0.601562" stop-color="rgb(92.668152%, 98.498535%, 100%)" stop-opacity="1"/>
<stop offset="0.605469" stop-color="rgb(92.959595%, 98.558044%, 100%)" stop-opacity="1"/>
<stop offset="0.609375" stop-color="rgb(93.251038%, 98.617554%, 100%)" stop-opacity="1"/>
<stop offset="0.613281" stop-color="rgb(93.54248%, 98.677063%, 100%)" stop-opacity="1"/>
<stop offset="0.617188" stop-color="rgb(93.835449%, 98.736572%, 100%)" stop-opacity="1"/>
<stop offset="0.621094" stop-color="rgb(94.126892%, 98.796082%, 100%)" stop-opacity="1"/>
<stop offset="0.625" stop-color="rgb(94.418335%, 98.857117%, 100%)" stop-opacity="1"/>
<stop offset="0.628906" stop-color="rgb(94.709778%, 98.916626%, 100%)" stop-opacity="1"/>
<stop offset="0.632813" stop-color="rgb(95.002747%, 98.976135%, 100%)" stop-opacity="1"/>
<stop offset="0.636719" stop-color="rgb(95.294189%, 99.035645%, 100%)" stop-opacity="1"/>
<stop offset="0.640625" stop-color="rgb(95.585632%, 99.095154%, 100%)" stop-opacity="1"/>
<stop offset="0.644531" stop-color="rgb(95.877075%, 99.154663%, 100%)" stop-opacity="1"/>
<stop offset="0.648438" stop-color="rgb(96.168518%, 99.215698%, 100%)" stop-opacity="1"/>
<stop offset="0.652344" stop-color="rgb(96.459961%, 99.275208%, 100%)" stop-opacity="1"/>
<stop offset="0.65625" stop-color="rgb(96.75293%, 99.334717%, 100%)" stop-opacity="1"/>
<stop offset="0.660156" stop-color="rgb(97.044373%, 99.394226%, 100%)" stop-opacity="1"/>
<stop offset="0.664062" stop-color="rgb(97.335815%, 99.453735%, 100%)" stop-opacity="1"/>
<stop offset="0.667969" stop-color="rgb(97.627258%, 99.513245%, 100%)" stop-opacity="1"/>
<stop offset="0.671875" stop-color="rgb(97.920227%, 99.57428%, 100%)" stop-opacity="1"/>
<stop offset="0.675781" stop-color="rgb(98.21167%, 99.633789%, 100%)" stop-opacity="1"/>
<stop offset="0.679688" stop-color="rgb(98.503113%, 99.693298%, 100%)" stop-opacity="1"/>
<stop offset="0.683594" stop-color="rgb(98.794556%, 99.752808%, 100%)" stop-opacity="1"/>
<stop offset="0.6875" stop-color="rgb(99.087524%, 99.812317%, 100%)" stop-opacity="1"/>
<stop offset="0.691406" stop-color="rgb(99.378967%, 99.871826%, 100%)" stop-opacity="1"/>
<stop offset="0.695312" stop-color="rgb(99.67041%, 99.931335%, 100%)" stop-opacity="1"/>
<stop offset="0.703125" stop-color="rgb(99.835205%, 99.964905%, 100%)" stop-opacity="1"/>
<stop offset="0.71875" stop-color="rgb(100%, 100%, 100%)" stop-opacity="1"/>
<stop offset="0.75" stop-color="rgb(100%, 100%, 100%)" stop-opacity="1"/>
<stop offset="1" stop-color="rgb(100%, 100%, 100%)" stop-opacity="1"/>
</linearGradient>
</defs>
<g clip-path="url(#clip-0)">
<path fill-rule="nonzero" fill="url(#linear-pattern-0)" d="M 10.324219 13.441406 L 3740.15625 10.535156 L 3741.890625 2237.25 L 12.058594 2240.152344 Z M 10.324219 13.441406 "/>
</g>
<path fill-rule="nonzero" fill="rgb(77.734375%, 91.40625%, 68.554688%)" fill-opacity="1" d="M 1398.699219 1163.628906 C 1398.46875 1163.789062 1403.039062 1167.839844 1400.578125 1168.671875 C 1399.5 1169.03125 1356.890625 1169.929688 1351.800781 1169.929688 C 1341.960938 1169.929688 1350.421875 1172.109375 1346.171875 1174.960938 C 1345.539062 1175.378906 1318.300781 1171.191406 1306.78125 1171.191406 C 1298.640625 1171.191406 1259.878906 1171.621094 1259.878906 1164.890625 C 1238.851562 1167.730469 1254.210938 1171.210938 1246.738281 1176.21875 C 1246.441406 1176.421875 1213.519531 1175.429688 1211.101562 1174.960938 C 1205.839844 1173.949219 1200.609375 1172.199219 1196.089844 1171.191406 C 1187.769531 1169.328125 1201.148438 1178.890625 1188.578125 1177.480469 C 1187.261719 1177.328125 1151.058594 1170.011719 1151.058594 1172.449219 C 1151.058594 1173.96875 1157.511719 1175.671875 1154.808594 1177.480469 C 1151.550781 1179.671875 1136.429688 1175.890625 1132.300781 1174.960938 C 1128.28125 1174.058594 1131.691406 1176.640625 1130.429688 1177.480469 C 1129.289062 1178.238281 1112.238281 1178.710938 1111.671875 1178.738281 C 1090.128906 1179.769531 1073.539062 1178.320312 1053.511719 1174.960938 C 1028.230469 1170.71875 1057.550781 1188.871094 1040.378906 1185.03125 C 1021.011719 1180.699219 998.109375 1180.78125 978.464844 1177.480469 C 966.238281 1175.429688 972.117188 1177.960938 969.085938 1180 C 966.992188 1181.398438 954.34375 1178.949219 952.199219 1178.738281 C 947.042969 1178.25 930.488281 1171.910156 925.9375 1174.960938 C 924.0625 1176.21875 927.8125 1181.261719 925.9375 1182.519531 C 923.121094 1184.410156 911.863281 1180.628906 909.050781 1182.519531 C 908.113281 1183.148438 908.113281 1184.398438 907.175781 1185.03125 C 906.292969 1185.628906 904.675781 1185.03125 903.421875 1185.03125 C 886.976562 1185.03125 867.214844 1186.601562 850.894531 1185.03125 C 848.011719 1184.761719 834.824219 1180.710938 832.132812 1182.519531 C 829.457031 1184.308594 838.628906 1189.148438 835.886719 1190.070312 C 824.84375 1193.769531 766.902344 1187.179688 758.964844 1186.289062 C 758.542969 1186.238281 749.414062 1183.890625 747.710938 1185.03125 C 746.148438 1186.078125 749.273438 1190.28125 747.710938 1191.328125 C 745.699219 1192.679688 682.011719 1192.589844 676.421875 1192.589844 C 674.355469 1192.589844 663.996094 1190.851562 663.289062 1191.328125 C 659.839844 1193.640625 668.613281 1200.339844 665.164062 1202.660156 C 662.144531 1204.679688 630.128906 1200.691406 627.644531 1200.140625 C 620.640625 1198.570312 624.589844 1202.660156 616.386719 1202.660156 C 606.058594 1202.660156 553.875 1200.269531 543.222656 1202.660156 C 539.070312 1203.578125 543.117188 1205.238281 541.34375 1206.429688 C 537.230469 1209.191406 497.882812 1205.171875 488.816406 1205.171875 C 453.09375 1209.609375 499.308594 1213.640625 493.390625 1215.621094 C 485.671875 1218.210938 446.925781 1212.808594 442.738281 1215.621094 C 439.652344 1217.691406 446.832031 1221 445.34375 1223.609375 C 440.761719 1224.039062 436.1875 1224.46875 431.609375 1224.910156 C 428.554688 1224.738281 425.148438 1224.53125 423.980469 1224.429688 C 423.554688 1224.398438 390.472656 1220.480469 390.207031 1220.660156 C 388.296875 1221.941406 392.277344 1223.109375 388.335938 1224.429688 C 383.0625 1226.199219 359.304688 1224.429688 352.6875 1224.429688 C 347.75 1224.429688 353.058594 1227.960938 350.8125 1229.46875 C 350.753906 1229.511719 310.15625 1229.789062 305.785156 1229.46875 C 287.796875 1228.128906 301.160156 1228.210938 294.527344 1228.210938 C 293.6875 1228.210938 292.328125 1228.558594 291.496094 1228.550781 C 292.863281 1228.769531 305.433594 1234.738281 302.03125 1237.019531 C 300.707031 1237.910156 298.28125 1237.019531 296.40625 1237.019531 C 286.742188 1237.019531 254.195312 1237.488281 243.878906 1235.761719 C 242.519531 1235.539062 241.375 1234.921875 240.125 1234.5 C 235.121094 1234.078125 230.140625 1233.53125 225.113281 1233.238281 C 222.390625 1233.089844 206.339844 1231.910156 202.023438 1231.121094 C 205.605469 1232.730469 210.355469 1236.96875 210.105469 1237.019531 C 204.851562 1238.199219 189.316406 1234.609375 185.71875 1237.019531 C 184.078125 1238.121094 187.59375 1239.050781 187.59375 1239.539062 C 187.59375 1239.828125 155.898438 1238.550781 157.574219 1240.800781 C 158.621094 1242.199219 165.078125 1243.550781 165.078125 1244.570312 C 165.078125 1246.25 160.078125 1244.570312 157.574219 1244.570312 L 127.5625 1244.570312 C 116.542969 1244.570312 132.363281 1251.421875 129.4375 1253.386719 C 126.003906 1255.6875 107.359375 1252.527344 103.171875 1252.128906 C 98.796875 1251.707031 93.167969 1248.769531 90.039062 1250.867188 C 83.78125 1255.066406 68.246094 1250.386719 61.898438 1254.644531 C 59.441406 1256.292969 60.796875 1258.160156 56.273438 1259.679688 C 44.417969 1263.65625 25.832031 1261.328125 12.054688 1261.046875 L 12.054688 1267.0625 C 15.816406 1268.714844 20.171875 1270.054688 18.75 1271.007812 C 17.851562 1271.613281 15.3125 1271.648438 12.054688 1271.410156 L 12.054688 2237.25 L 3740.160156 2237.25 L 3740.160156 1379.484375 C 3739.960938 1379.453125 3739.621094 1379.355469 3739.429688 1379.328125 C 3732.320312 1378.375 3723.871094 1380.664062 3716.921875 1379.328125 C 3681.039062 1372.453125 3668.128906 1369.796875 3664.28125 1368.785156 C 3664.320312 1369.375 3664.109375 1369.796875 3662.511719 1369.261719 C 3647.820312 1364.328125 3615.558594 1348.722656 3600.660156 1348.722656 C 3599.320312 1348.722656 3610.371094 1361.089844 3608.171875 1362.566406 C 3607.289062 1363.160156 3605.628906 1362.773438 3604.421875 1362.566406 C 3598.078125 1361.507812 3591.921875 1360.027344 3585.660156 1358.792969 C 3581.289062 1357.929688 3576.96875 1356.9375 3572.519531 1356.273438 C 3565 1355.152344 3571.519531 1358.464844 3566.898438 1357.535156 C 3557.429688 1355.628906 3548.261719 1353.0625 3538.75 1351.238281 C 3535.359375 1350.589844 3534.691406 1353.242188 3533.128906 1352.496094 C 3519.511719 1345.972656 3507.230469 1341.8125 3491.859375 1337.390625 C 3485.371094 1335.527344 3497.78125 1345.347656 3499.359375 1347.464844 C 3499.640625 1347.839844 3498.089844 1347.546875 3497.480469 1347.464844 C 3492.421875 1346.785156 3487.53125 1345.625 3482.46875 1344.945312 C 3478.679688 1344.4375 3482.398438 1343.867188 3476.839844 1342.429688 C 3468.128906 1340.171875 3459.128906 1338.414062 3450.570312 1335.902344 C 3442.828125 1333.636719 3435.769531 1330.40625 3428.050781 1328.117188 C 3418.96875 1325.429688 3433.910156 1336.105469 3428.050781 1335.671875 C 3403.210938 1333.820312 3383.039062 1325.378906 3361.128906 1318.027344 C 3356.308594 1316.410156 3363.679688 1326.484375 3355.5 1324.324219 C 3345.828125 1321.773438 3336.519531 1318.652344 3327.03125 1315.816406 C 3316.980469 1313.078125 3307.011719 1310.203125 3296.878906 1307.605469 C 3292.199219 1306.40625 3297.871094 1311.183594 3293.121094 1310.125 C 3277.308594 1306.585938 3290.351562 1308.058594 3272.488281 1306.347656 C 3268.871094 1306 3268.878906 1308.1875 3266.859375 1307.605469 C 3263.121094 1306.527344 3250.199219 1300.605469 3244.351562 1302.570312 C 3240.878906 1303.734375 3246.359375 1305.359375 3234.96875 1303.832031 C 3221.46875 1302.019531 3206.550781 1298.972656 3193.699219 1297.535156 C 3181.359375 1296.15625 3152.460938 1288.699219 3150.550781 1289.980469 C 3150.378906 1290.09375 3153.070312 1296.363281 3152.421875 1296.277344 C 3116.949219 1291.515625 3084.25 1279.457031 3049.871094 1272.027344 C 3044.75 1270.921875 3054.769531 1278.320312 3047.988281 1278.320312 C 3040.328125 1278.320312 3024.398438 1276.160156 3017.980469 1278.320312 C 3012.601562 1280.121094 3025.109375 1280.484375 3004.839844 1279.578125 C 2976.828125 1278.324219 2933.839844 1265.828125 2911.039062 1258.179688 C 2909.359375 1257.617188 2928.480469 1269.660156 2922.300781 1268.246094 C 2912.519531 1266.019531 2844.53125 1245.210938 2828.488281 1245.210938 C 2825.359375 1245.210938 2836.320312 1248.761719 2834.109375 1250.246094 C 2829.601562 1253.273438 2821.511719 1248.828125 2815.351562 1247.730469 C 2799.988281 1244.980469 2807.050781 1245.210938 2798.46875 1245.210938 C 2793.429688 1245.210938 2800.390625 1249.421875 2792.839844 1247.730469 C 2784.359375 1245.828125 2746.429688 1232.621094 2740.308594 1232.621094 C 2738.890625 1232.621094 2749.691406 1241.820312 2749.691406 1242.691406 C 2749.691406 1244.878906 2709.710938 1240.179688 2700.910156 1240.179688 C 2686.898438 1240.179688 2666.96875 1233.679688 2654.011719 1231.359375 C 2653.988281 1231.359375 2653.960938 1231.351562 2653.929688 1231.351562 C 2659.871094 1234.460938 2667.140625 1241.320312 2661.519531 1240.171875 C 2632.109375 1234.191406 2603.171875 1227.210938 2573.789062 1221.160156 C 2567.28125 1219.820312 2560.671875 1218.699219 2554.019531 1217.71875 C 2552.800781 1217.550781 2551.148438 1217.128906 2550.269531 1217.71875 C 2548.308594 1219.039062 2557.851562 1218.929688 2555.890625 1220.238281 C 2554.570312 1221.128906 2552.121094 1220.449219 2550.269531 1220.238281 C 2540.828125 1219.191406 2531.449219 1217.890625 2522.128906 1216.46875 C 2521.238281 1216.328125 2507.121094 1213.171875 2507.121094 1213.949219 C 2507.121094 1215.101562 2527.070312 1225.078125 2525.878906 1225.28125 C 2508.078125 1228.261719 2489.378906 1216.46875 2471.46875 1216.46875 C 2470.851562 1216.46875 2469.589844 1216.050781 2469.589844 1216.46875 C 2469.589844 1217.011719 2479.878906 1220.570312 2477.101562 1221.5 C 2468.179688 1224.5 2402.058594 1210.558594 2402.058594 1206.398438 C 2397.28125 1208.089844 2415.710938 1217.390625 2411.761719 1220.039062 C 2409.890625 1221.289062 2387.96875 1212.378906 2372.359375 1207.449219 C 2354.21875 1201.730469 2367.128906 1207.96875 2349.851562 1206.191406 C 2331.050781 1204.269531 2312.480469 1201.429688 2293.691406 1199.480469 C 2249.390625 1194.871094 2280.070312 1202.558594 2233.539062 1190.070312 C 2228.890625 1188.820312 2240.199219 1195.101562 2231.671875 1195.101562 L 2207.28125 1195.101562 C 2191.101562 1195.101562 2182.738281 1197.589844 2166 1193.839844 C 2162.980469 1193.171875 2155.199219 1190.671875 2156.621094 1192.578125 C 2157.808594 1194.179688 2164.128906 1195.101562 2162.25 1196.359375 C 2159.679688 1198.089844 2127.488281 1188.101562 2116.269531 1186.761719 C 2120.03125 1188.28125 2134.609375 1196.019531 2132.238281 1197.621094 C 2130.128906 1199.03125 2101.78125 1194.480469 2098.46875 1193.839844 C 2089.511719 1192.121094 2078.660156 1192.46875 2068.449219 1191.320312 C 2062.429688 1190.648438 2056.019531 1190.621094 2050.480469 1188.949219 C 2050.589844 1188.261719 2050.410156 1187.550781 2049.691406 1187.550781 C 2049.058594 1187.550781 2049.128906 1188.621094 2049.691406 1188.808594 C 2049.929688 1188.890625 2050.230469 1188.878906 2050.480469 1188.960938 C 2050.398438 1189.46875 2050.210938 1190.011719 2049.691406 1190.070312 C 2040.429688 1191.101562 2030.828125 1190.960938 2021.550781 1190.070312 C 2007.078125 1188.679688 1991.109375 1181.738281 1978.398438 1177.480469 C 1974.730469 1176.25 1977.441406 1179.378906 1976.519531 1180 C 1973.871094 1181.78125 1968.96875 1180.378906 1965.269531 1180 C 1929.019531 1176.261719 1960.261719 1179.300781 1946.511719 1176.21875 C 1942.578125 1175.339844 1946.828125 1178.738281 1942.75 1178.738281 C 1937.480469 1178.738281 1926.699219 1177.199219 1922.121094 1178.738281 C 1921.960938 1178.789062 1921.859375 1183.519531 1922.121094 1183.738281 C 1912.320312 1183.738281 1889.949219 1183.679688 1882.71875 1181.25 C 1876.761719 1179.261719 1839.628906 1172.398438 1835.820312 1174.960938 C 1833.648438 1176.410156 1848.828125 1186.910156 1843.320312 1186.289062 C 1826.570312 1184.421875 1840.539062 1186.019531 1820.808594 1180 C 1811.609375 1177.191406 1810.808594 1180.460938 1807.679688 1180 C 1796.261719 1178.289062 1784.890625 1176.160156 1773.910156 1173.699219 C 1769.21875 1172.648438 1774.941406 1177.019531 1770.160156 1176.21875 C 1751.429688 1173.078125 1733.390625 1167.410156 1713.871094 1167.410156 C 1698.210938 1165.710938 1721.980469 1177.070312 1717.628906 1180 C 1716.300781 1180.890625 1713.871094 1180 1712 1180 C 1705.539062 1180 1667.46875 1179.671875 1666.96875 1180 C 1664.730469 1181.5 1672.078125 1182.441406 1663.21875 1181.25 C 1656.730469 1180.378906 1646.78125 1176.128906 1642.578125 1174.960938 C 1636.910156 1173.371094 1629.75 1171.25 1623.820312 1169.929688 C 1618.730469 1168.789062 1627.351562 1172.441406 1621.949219 1172.441406 L 1597.558594 1172.441406 C 1596.308594 1172.441406 1593.808594 1171.601562 1593.808594 1172.441406 C 1593.808594 1173.96875 1598.21875 1175.660156 1591.929688 1174.960938 C 1583.398438 1174.011719 1577.519531 1172.539062 1569.421875 1171.191406 C 1564.488281 1170.359375 1557.191406 1171.628906 1552.539062 1171.191406 C 1546.679688 1170.621094 1539.921875 1169.351562 1533.769531 1168.671875 C 1527.398438 1167.949219 1530.53125 1169.578125 1528.140625 1171.191406 C 1526.839844 1172.058594 1511.019531 1171.289062 1509.378906 1171.191406 C 1507.46875 1171.058594 1490.03125 1167.808594 1488.75 1168.671875 C 1486.828125 1169.949219 1490.808594 1171.121094 1486.871094 1172.441406 C 1476.851562 1175.808594 1463.050781 1173.410156 1453.101562 1171.191406 C 1448.101562 1170.070312 1453.730469 1171.878906 1451.230469 1172.441406 C 1447.070312 1173.371094 1442.339844 1173.160156 1438.089844 1172.441406 C 1433.75 1171.710938 1399.808594 1162.878906 1398.699219 1163.628906 Z M 291.496094 1228.550781 C 291.421875 1228.539062 290.777344 1228.179688 290.777344 1228.210938 C 290.777344 1228.480469 291.089844 1228.550781 291.496094 1228.550781 Z M 2113.46875 1186.289062 C 2114.019531 1186.289062 2115.488281 1186.671875 2116.269531 1186.761719 C 2116.089844 1186.691406 2115.46875 1186.328125 2115.351562 1186.289062 C 2114.789062 1186.101562 2112.851562 1186.289062 2113.46875 1186.289062 Z M 2650.671875 1230 C 2649.710938 1229.75 2648.910156 1229.75 2648.378906 1230.101562 C 2647 1231.03125 2651.96875 1231.019531 2653.929688 1231.351562 C 2652.75 1230.738281 2651.628906 1230.25 2650.671875 1230 Z M 200.199219 1230.53125 C 199.65625 1230.441406 199.191406 1230.488281 198.84375 1230.71875 C 198.703125 1230.820312 201.328125 1231 202.015625 1231.121094 C 201.359375 1230.828125 200.742188 1230.609375 200.199219 1230.53125 Z M 3666.261719 1366.738281 C 3663.871094 1366.203125 3664.101562 1367.28125 3664.289062 1368.25 C 3670.429688 1368.863281 3685.359375 1371.011719 3666.261719 1366.738281 Z M 3664.289062 1368.25 C 3662.050781 1368.027344 3662.121094 1368.214844 3664.289062 1368.785156 C 3664.289062 1368.601562 3664.339844 1368.460938 3664.289062 1368.25 "/>
<path fill-rule="nonzero" fill="rgb(66.601562%, 87.109375%, 52.929688%)" fill-opacity="1" d="M 1019.738281 1213.351562 L 1019.75 1213.351562 C 1019.578125 1213.5 1022.898438 1217.371094 1021.109375 1218.160156 C 1020.328125 1218.5 989.363281 1219.359375 985.664062 1219.359375 C 978.511719 1219.359375 984.660156 1221.441406 981.574219 1224.160156 C 981.117188 1224.558594 961.324219 1220.558594 952.945312 1220.558594 C 947.03125 1220.558594 918.863281 1220.96875 918.863281 1214.558594 C 903.582031 1217.261719 914.75 1220.578125 909.316406 1225.359375 C 909.101562 1225.550781 885.175781 1224.601562 883.414062 1224.160156 C 879.59375 1223.199219 875.796875 1221.519531 872.507812 1220.558594 C 866.464844 1218.78125 876.1875 1227.898438 867.054688 1226.558594 C 866.09375 1226.421875 839.785156 1219.429688 839.785156 1221.761719 C 839.785156 1223.210938 844.472656 1224.839844 842.511719 1226.558594 C 840.140625 1228.648438 829.152344 1225.039062 826.152344 1224.160156 C 823.234375 1223.300781 825.707031 1225.75 824.789062 1226.558594 C 823.96875 1227.289062 811.574219 1227.730469 811.15625 1227.761719 C 795.507812 1228.738281 783.453125 1227.359375 768.890625 1224.160156 C 750.523438 1220.121094 771.828125 1237.421875 759.347656 1233.761719 C 745.273438 1229.628906 728.632812 1229.699219 714.359375 1226.558594 C 705.472656 1224.601562 709.746094 1227.019531 707.539062 1228.960938 C 706.019531 1230.300781 696.828125 1227.960938 695.273438 1227.761719 C 691.523438 1227.289062 679.492188 1221.25 676.183594 1224.160156 C 674.820312 1225.359375 677.546875 1230.160156 676.183594 1231.359375 C 674.140625 1233.160156 665.957031 1229.558594 663.914062 1231.359375 C 663.230469 1231.960938 663.234375 1233.160156 662.550781 1233.761719 C 661.910156 1234.328125 660.734375 1233.761719 659.824219 1233.761719 C 647.871094 1233.761719 633.511719 1235.25 621.652344 1233.761719 C 619.558594 1233.5 609.972656 1229.640625 608.015625 1231.359375 C 606.070312 1233.070312 612.738281 1237.691406 610.742188 1238.570312 C 602.71875 1242.101562 560.613281 1235.808594 554.847656 1234.960938 C 554.535156 1234.921875 547.902344 1232.671875 546.664062 1233.761719 C 545.53125 1234.761719 547.800781 1238.761719 546.664062 1239.761719 C 545.203125 1241.050781 498.921875 1240.96875 494.859375 1240.96875 C 493.359375 1240.96875 485.828125 1239.308594 485.316406 1239.761719 C 482.808594 1241.96875 489.183594 1248.359375 486.679688 1250.570312 C 484.484375 1252.5 461.21875 1248.699219 459.410156 1248.171875 C 454.320312 1246.671875 457.191406 1250.570312 451.230469 1250.570312 C 443.726562 1250.570312 405.804688 1248.300781 398.0625 1250.570312 C 395.046875 1251.453125 397.984375 1253.035156 396.695312 1254.171875 C 393.710938 1256.800781 365.113281 1252.972656 358.523438 1252.972656 C 332.5625 1257.203125 366.148438 1261.039062 361.851562 1262.933594 C 356.238281 1265.402344 328.082031 1260.253906 325.039062 1262.933594 C 322.796875 1264.90625 328.015625 1268.066406 326.929688 1270.546875 C 323.601562 1270.960938 320.277344 1271.378906 316.953125 1271.796875 C 314.730469 1271.628906 312.257812 1271.433594 311.40625 1271.339844 C 311.097656 1271.304688 287.058594 1267.566406 286.863281 1267.734375 C 285.476562 1268.960938 288.367188 1270.078125 285.503906 1271.339844 C 281.671875 1273.023438 264.40625 1271.339844 259.597656 1271.339844 C 256.007812 1271.339844 259.867188 1274.699219 258.234375 1276.136719 C 258.191406 1276.175781 228.6875 1276.449219 225.515625 1276.136719 C 212.441406 1274.859375 222.152344 1274.9375 217.335938 1274.9375 C 216.425781 1274.9375 214.605469 1275.738281 214.605469 1274.9375 C 214.605469 1274.460938 225.394531 1281.046875 222.789062 1283.34375 C 221.824219 1284.191406 220.0625 1283.34375 218.699219 1283.34375 C 211.675781 1283.34375 188.023438 1283.792969 180.523438 1282.144531 C 179.539062 1281.925781 178.707031 1281.339844 177.796875 1280.941406 C 174.160156 1280.539062 170.539062 1280.007812 166.890625 1279.742188 C 164.910156 1279.597656 153.246094 1278.464844 150.109375 1277.71875 C 152.714844 1279.25 156.164062 1283.289062 155.984375 1283.34375 C 152.164062 1284.464844 140.875 1281.039062 138.261719 1283.34375 C 137.070312 1284.390625 139.625 1285.273438 139.625 1285.742188 C 139.625 1286.019531 116.589844 1284.796875 117.808594 1286.945312 C 118.566406 1288.28125 123.261719 1289.570312 123.261719 1290.546875 C 123.261719 1292.144531 119.628906 1290.546875 117.808594 1290.546875 L 95.996094 1290.546875 C 87.988281 1290.546875 99.484375 1297.074219 97.359375 1298.949219 C 94.863281 1301.144531 81.3125 1298.132812 78.273438 1297.75 C 75.089844 1297.347656 71 1294.546875 68.730469 1296.546875 C 64.179688 1300.554688 52.890625 1296.089844 48.277344 1300.148438 C 46.492188 1301.722656 47.476562 1303.503906 44.1875 1304.949219 C 35.574219 1308.742188 22.070312 1306.523438 12.054688 1306.253906 L 12.054688 1311.992188 C 14.789062 1313.566406 17.957031 1314.847656 16.921875 1315.757812 C 16.269531 1316.332031 14.425781 1316.367188 12.054688 1316.140625 L 12.054688 2237.25 L 3049.328125 2237.25 L 3049.328125 1501.988281 C 3038.679688 1495.121094 3027.339844 1487.3125 3024.628906 1487.3125 C 3024.378906 1487.3125 3024.949219 1491.976562 3024.628906 1492.117188 C 3021.671875 1493.417969 3018.261719 1490.550781 3015.089844 1489.714844 C 3003.558594 1486.667969 3005.941406 1490.914062 3005.539062 1490.914062 C 2999.511719 1490.914062 2988.691406 1483.167969 2982.371094 1481.3125 C 2979.011719 1480.328125 2982.800781 1485.105469 2979.640625 1483.714844 C 2969.910156 1479.433594 2961.679688 1475.257812 2951.011719 1472.90625 C 2946.230469 1471.855469 2952.621094 1479.277344 2949.648438 1477.710938 C 2943.429688 1474.425781 2937.921875 1471.804688 2930.558594 1470.507812 C 2922.300781 1469.054688 2934.691406 1475.496094 2918.289062 1469.308594 C 2914.910156 1468.03125 2904.421875 1461.109375 2901.929688 1463.304688 C 2899.769531 1465.203125 2896.578125 1460.699219 2893.75 1459.703125 C 2889.339844 1458.152344 2884.621094 1457.421875 2880.121094 1456.101562 C 2876.46875 1455.03125 2874.289062 1454.144531 2873.070312 1453.515625 C 2873.300781 1455.046875 2871.929688 1457.972656 2871.929688 1459.703125 C 2871.929688 1461.304688 2873.21875 1463.375 2871.929688 1464.503906 C 2870.648438 1465.636719 2868.171875 1465.101562 2866.480469 1464.503906 C 2863.441406 1463.433594 2861.050781 1461.277344 2858.300781 1459.703125 C 2839.03125 1448.648438 2816.710938 1434.285156 2795.761719 1425.0625 C 2789.128906 1422.140625 2797.871094 1431.066406 2793.039062 1431.066406 C 2789.539062 1431.066406 2771.648438 1427.277344 2768.5 1428.664062 C 2767.589844 1429.066406 2770.578125 1430.433594 2769.859375 1431.066406 C 2769.839844 1431.078125 2761.941406 1426.382812 2758.949219 1425.0625 C 2755.921875 1423.730469 2758.410156 1427.945312 2757.589844 1428.664062 C 2754.679688 1431.226562 2749.261719 1428.507812 2745.320312 1427.464844 C 2741.910156 1426.5625 2726.980469 1420.152344 2720.78125 1419.0625 C 2715.609375 1418.152344 2709.46875 1420.332031 2704.421875 1419.0625 C 2678.351562 1412.503906 2668.96875 1409.96875 2666.171875 1409.003906 C 2666.199219 1409.566406 2666.039062 1409.96875 2664.878906 1409.457031 C 2654.199219 1404.757812 2630.761719 1389.871094 2619.941406 1389.871094 C 2618.960938 1389.871094 2627 1401.664062 2625.390625 1403.074219 C 2624.75 1403.640625 2623.550781 1403.269531 2622.671875 1403.074219 C 2618.058594 1402.0625 2613.578125 1400.652344 2609.03125 1399.472656 C 2605.859375 1398.652344 2602.71875 1397.707031 2599.488281 1397.074219 C 2594.019531 1396.003906 2598.761719 1399.160156 2595.398438 1398.273438 C 2588.519531 1396.453125 2581.859375 1394.011719 2574.949219 1392.269531 C 2572.480469 1391.652344 2571.988281 1394.183594 2570.859375 1393.472656 C 2560.96875 1387.246094 2552.039062 1383.28125 2540.871094 1379.066406 C 2536.160156 1377.289062 2545.171875 1386.652344 2546.320312 1388.671875 C 2546.519531 1389.027344 2545.398438 1388.75 2544.949219 1388.671875 C 2541.28125 1388.023438 2537.71875 1386.917969 2534.050781 1386.269531 C 2531.289062 1385.785156 2533.988281 1385.242188 2529.960938 1383.867188 C 2523.628906 1381.714844 2517.078125 1380.039062 2510.871094 1377.644531 C 2505.238281 1375.480469 2500.109375 1372.402344 2494.5 1370.222656 C 2487.898438 1367.65625 2498.75 1377.839844 2494.5 1377.425781 C 2476.441406 1375.65625 2461.789062 1367.609375 2445.859375 1360.597656 C 2442.359375 1359.058594 2447.71875 1368.664062 2441.769531 1366.601562 C 2434.75 1364.167969 2427.980469 1361.191406 2421.089844 1358.488281 C 2413.78125 1355.878906 2406.539062 1353.132812 2399.171875 1350.65625 C 2395.78125 1349.515625 2399.898438 1354.070312 2396.449219 1353.058594 C 2384.949219 1349.6875 2394.429688 1351.089844 2381.449219 1349.457031 C 2378.820312 1349.128906 2378.828125 1351.210938 2377.359375 1350.65625 C 2374.640625 1349.632812 2365.25 1343.984375 2361 1345.855469 C 2358.480469 1346.96875 2362.460938 1348.515625 2354.179688 1347.058594 C 2344.371094 1345.328125 2333.53125 1342.425781 2324.191406 1341.054688 C 2315.230469 1339.738281 2294.21875 1332.628906 2292.828125 1333.851562 C 2292.710938 1333.960938 2294.660156 1339.9375 2294.199219 1339.855469 C 2268.421875 1335.3125 2244.648438 1323.8125 2219.671875 1316.726562 C 2215.949219 1315.671875 2223.230469 1322.726562 2218.308594 1322.726562 C 2212.738281 1322.726562 2201.160156 1320.671875 2196.488281 1322.726562 C 2192.589844 1324.445312 2201.679688 1324.792969 2186.949219 1323.929688 C 2166.589844 1322.734375 2135.351562 1310.816406 2118.78125 1303.519531 C 2117.558594 1302.984375 2131.460938 1314.46875 2126.960938 1313.121094 C 2119.851562 1310.996094 2070.449219 1291.152344 2058.789062 1291.152344 C 2056.519531 1291.152344 2064.480469 1294.539062 2062.878906 1295.953125 C 2059.601562 1298.839844 2053.71875 1294.605469 2049.238281 1293.554688 C 2038.078125 1290.933594 2043.210938 1291.152344 2036.96875 1291.152344 C 2033.320312 1291.152344 2038.371094 1295.164062 2032.878906 1293.554688 C 2026.71875 1291.742188 1999.160156 1279.148438 1994.710938 1279.148438 C 1993.679688 1279.148438 2001.53125 1287.921875 2001.53125 1288.75 C 2001.53125 1290.835938 1972.46875 1286.351562 1966.078125 1286.351562 C 1955.898438 1286.351562 1941.410156 1280.15625 1932 1277.945312 C 1931.980469 1277.9375 1931.960938 1277.9375 1931.929688 1277.9375 C 1936.25 1280.894531 1941.539062 1287.4375 1937.449219 1286.347656 C 1916.078125 1280.644531 1895.050781 1273.984375 1873.699219 1268.214844 C 1868.96875 1266.933594 1864.171875 1265.863281 1859.328125 1264.9375 C 1858.441406 1264.769531 1857.25 1264.371094 1856.601562 1264.9375 C 1855.179688 1266.1875 1862.109375 1266.089844 1860.691406 1267.339844 C 1859.730469 1268.1875 1857.949219 1267.539062 1856.601562 1267.339844 C 1849.75 1266.335938 1842.929688 1265.097656 1836.148438 1263.738281 C 1835.511719 1263.609375 1825.238281 1260.597656 1825.238281 1261.339844 C 1825.238281 1262.433594 1839.738281 1271.953125 1838.878906 1272.144531 C 1825.941406 1274.988281 1812.359375 1263.738281 1799.339844 1263.738281 C 1798.890625 1263.738281 1797.980469 1263.339844 1797.980469 1263.738281 C 1797.980469 1264.261719 1805.449219 1267.652344 1803.429688 1268.539062 C 1796.949219 1271.394531 1748.898438 1258.101562 1748.898438 1254.132812 C 1745.421875 1255.753906 1758.820312 1264.621094 1755.949219 1267.148438 C 1754.589844 1268.34375 1738.660156 1259.847656 1727.308594 1255.144531 C 1714.128906 1249.679688 1723.519531 1255.632812 1710.949219 1253.941406 C 1697.300781 1252.105469 1683.800781 1249.398438 1670.148438 1247.53125 C 1637.949219 1243.148438 1660.25 1250.472656 1626.441406 1238.558594 C 1623.058594 1237.371094 1631.28125 1243.359375 1625.070312 1243.359375 L 1607.351562 1243.359375 C 1595.589844 1243.359375 1589.519531 1245.730469 1577.359375 1242.160156 C 1575.160156 1241.519531 1569.5 1239.140625 1570.539062 1240.960938 C 1571.398438 1242.480469 1575.988281 1243.359375 1574.628906 1244.558594 C 1572.761719 1246.210938 1549.359375 1236.691406 1541.210938 1235.410156 C 1543.941406 1236.859375 1554.539062 1244.238281 1552.820312 1245.761719 C 1551.28125 1247.109375 1530.679688 1242.769531 1528.269531 1242.160156 C 1521.761719 1240.519531 1513.878906 1240.851562 1506.460938 1239.761719 C 1502.089844 1239.121094 1497.429688 1239.089844 1493.398438 1237.5 C 1493.339844 1237.988281 1493.210938 1238.511719 1492.828125 1238.558594 C 1486.101562 1239.550781 1479.121094 1239.410156 1472.378906 1238.558594 C 1461.859375 1237.238281 1450.261719 1230.621094 1441.019531 1226.558594 C 1438.351562 1225.378906 1440.328125 1228.371094 1439.660156 1228.960938 C 1437.730469 1230.660156 1434.171875 1229.320312 1431.480469 1228.960938 C 1405.140625 1225.390625 1427.839844 1228.289062 1417.839844 1225.359375 C 1414.988281 1224.519531 1418.078125 1227.761719 1415.121094 1227.761719 C 1411.28125 1227.761719 1403.449219 1226.289062 1400.121094 1227.761719 C 1400.011719 1227.808594 1399.929688 1232.320312 1400.121094 1232.53125 C 1393 1232.53125 1376.738281 1232.46875 1371.488281 1230.160156 C 1367.160156 1228.25 1340.179688 1221.710938 1337.410156 1224.160156 C 1335.828125 1225.539062 1346.859375 1235.550781 1342.859375 1234.960938 C 1330.691406 1233.171875 1340.839844 1234.699219 1326.5 1228.960938 C 1319.820312 1226.28125 1319.230469 1229.398438 1316.960938 1228.960938 C 1308.660156 1227.339844 1300.390625 1225.300781 1292.410156 1222.960938 C 1289.011719 1221.960938 1293.160156 1226.121094 1289.691406 1225.359375 C 1276.078125 1222.359375 1262.96875 1216.949219 1248.789062 1216.949219 C 1237.410156 1215.328125 1254.679688 1226.171875 1251.511719 1228.960938 C 1250.550781 1229.808594 1248.789062 1228.960938 1247.421875 1228.960938 C 1242.730469 1228.960938 1215.058594 1228.640625 1214.699219 1228.960938 C 1213.070312 1230.390625 1218.410156 1231.289062 1211.980469 1230.160156 C 1207.261719 1229.328125 1200.03125 1225.28125 1196.980469 1224.160156 C 1192.851562 1222.640625 1187.660156 1220.621094 1183.351562 1219.351562 C 1179.648438 1218.269531 1185.910156 1221.75 1181.980469 1221.75 L 1164.261719 1221.75 C 1163.351562 1221.75 1161.53125 1220.949219 1161.53125 1221.75 C 1161.53125 1223.210938 1164.738281 1224.828125 1160.171875 1224.160156 C 1153.96875 1223.25 1149.691406 1221.851562 1143.808594 1220.550781 C 1140.230469 1219.769531 1134.921875 1220.980469 1131.539062 1220.550781 C 1127.28125 1220.019531 1122.371094 1218.808594 1117.910156 1218.148438 C 1113.28125 1217.46875 1115.550781 1219.03125 1113.820312 1220.550781 C 1112.859375 1221.390625 1101.371094 1220.660156 1100.179688 1220.550781 C 1098.789062 1220.429688 1086.121094 1217.328125 1085.179688 1218.148438 C 1083.789062 1219.378906 1086.691406 1220.488281 1083.820312 1221.75 C 1076.539062 1224.960938 1066.511719 1222.679688 1059.28125 1220.550781 C 1055.648438 1219.488281 1059.738281 1221.21875 1057.921875 1221.75 C 1054.898438 1222.640625 1051.460938 1222.429688 1048.371094 1221.75 C 1045.21875 1221.058594 1020.550781 1212.640625 1019.738281 1213.351562 Z M 1493.398438 1237.5 C 1493.480469 1236.839844 1493.351562 1236.160156 1492.828125 1236.160156 C 1492.371094 1236.160156 1492.421875 1237.179688 1492.828125 1237.359375 C 1493.011719 1237.441406 1493.21875 1237.429688 1493.398438 1237.5 Z M 1541.210938 1235.410156 C 1541.078125 1235.351562 1540.628906 1235 1540.539062 1234.960938 C 1540.140625 1234.78125 1538.730469 1234.960938 1539.179688 1234.960938 C 1539.578125 1234.960938 1540.648438 1235.320312 1541.210938 1235.410156 Z M 1931.929688 1277.9375 C 1930.230469 1276.773438 1928.679688 1276.066406 1927.910156 1276.746094 C 1926.898438 1277.628906 1930.511719 1277.621094 1931.929688 1277.9375 Z M 147.796875 1277.339844 C 148.300781 1276.894531 149.148438 1277.15625 150.101562 1277.71875 C 149.605469 1277.597656 147.695312 1277.429688 147.796875 1277.339844 Z M 2667.609375 1407.054688 C 2665.871094 1406.542969 2666.039062 1407.570312 2666.179688 1408.496094 C 2670.640625 1409.078125 2681.488281 1411.128906 2667.609375 1407.054688 Z M 2666.179688 1408.496094 C 2664.550781 1408.28125 2664.601562 1408.460938 2666.171875 1409.003906 C 2666.179688 1408.828125 2666.210938 1408.695312 2666.179688 1408.496094 Z M 2871.941406 1452.496094 C 2872.699219 1452.496094 2872.980469 1452.921875 2873.070312 1453.511719 C 2871.828125 1452.871094 2871.578125 1452.496094 2871.941406 1452.496094 Z M 3109.109375 1522.472656 C 3109.089844 1522.640625 3109.25 1523.328125 3109.160156 1523.328125 C 3108.808594 1523.328125 3109.039062 1522.863281 3109.109375 1522.472656 "/>
<path fill-rule="nonzero" fill="rgb(55.271912%, 82.8125%, 37.255859%)" fill-opacity="1" d="M 3559.460938 1288.4375 C 3558.789062 1287.707031 3538.351562 1296.320312 3535.730469 1297.035156 C 3533.171875 1297.730469 3530.320312 1297.941406 3527.820312 1297.035156 C 3526.308594 1296.488281 3529.699219 1294.714844 3526.691406 1295.804688 C 3520.699219 1297.976562 3512.378906 1300.3125 3506.351562 1297.035156 C 3503.96875 1295.742188 3506.378906 1294.601562 3505.21875 1293.347656 C 3504.449219 1292.511719 3493.941406 1295.679688 3492.789062 1295.804688 C 3491.800781 1295.914062 3482.28125 1296.660156 3481.488281 1295.804688 C 3480.050781 1294.242188 3481.929688 1292.652344 3478.101562 1293.347656 C 3474.398438 1294.019531 3470.320312 1295.257812 3466.800781 1295.804688 C 3463.988281 1296.242188 3459.601562 1295 3456.628906 1295.804688 C 3451.75 1297.132812 3448.199219 1298.558594 3443.070312 1299.488281 C 3439.28125 1300.175781 3441.929688 1298.523438 3441.929688 1297.035156 C 3441.929688 1296.214844 3440.429688 1297.035156 3439.671875 1297.035156 L 3424.980469 1297.035156 C 3421.730469 1297.035156 3426.921875 1293.464844 3423.851562 1294.578125 C 3420.28125 1295.871094 3415.96875 1297.941406 3412.550781 1299.488281 C 3410.03125 1300.636719 3404.03125 1304.78125 3400.121094 1305.632812 C 3394.789062 1306.789062 3399.210938 1305.871094 3397.859375 1304.402344 C 3397.570312 1304.082031 3374.628906 1304.402344 3370.738281 1304.402344 C 3369.609375 1304.402344 3368.148438 1305.273438 3367.351562 1304.402344 C 3364.730469 1301.554688 3379.050781 1290.460938 3369.609375 1292.121094 C 3357.859375 1292.121094 3346.988281 1297.652344 3335.710938 1300.71875 C 3332.828125 1301.5 3336.269531 1297.238281 3333.449219 1298.261719 C 3326.839844 1300.65625 3319.980469 1302.742188 3313.109375 1304.402344 C 3311.21875 1304.859375 3310.738281 1301.667969 3305.199219 1304.402344 C 3293.308594 1310.277344 3301.730469 1308.71875 3291.640625 1310.546875 C 3288.320312 1311.144531 3297.460938 1300.90625 3296.160156 1299.488281 C 3293.859375 1296.992188 3271.488281 1303.683594 3267.910156 1305.632812 C 3263.550781 1307.996094 3250.078125 1308.058594 3244.179688 1308.0625 C 3244.328125 1307.839844 3244.269531 1303.226562 3244.179688 1303.175781 C 3241.421875 1301.675781 3234.921875 1303.175781 3231.75 1303.175781 C 3229.289062 1303.175781 3231.851562 1299.859375 3229.488281 1300.71875 C 3221.199219 1303.71875 3240.011719 1300.753906 3218.179688 1304.402344 C 3215.949219 1304.777344 3213 1306.140625 3211.398438 1304.402344 C 3210.851562 1303.800781 3212.488281 1300.746094 3210.269531 1301.945312 C 3202.621094 1306.109375 3193 1312.875 3184.28125 1314.230469 C 3178.691406 1315.097656 3172.910156 1315.238281 3167.328125 1314.230469 C 3167.019531 1314.171875 3166.910156 1313.644531 3166.859375 1313.144531 C 3163.519531 1314.773438 3159.660156 1314.800781 3156.03125 1315.457031 C 3149.878906 1316.574219 3143.351562 1316.238281 3137.949219 1317.914062 C 3135.949219 1318.535156 3118.878906 1322.980469 3117.609375 1321.597656 C 3116.179688 1320.042969 3124.96875 1312.488281 3127.230469 1311.003906 C 3120.46875 1312.308594 3101.078125 1322.058594 3099.53125 1320.371094 C 3098.398438 1319.144531 3102.199219 1318.238281 3102.921875 1316.6875 C 3103.78125 1314.816406 3099.089844 1317.253906 3097.269531 1317.914062 C 3087.191406 1321.566406 3082.148438 1319.140625 3072.410156 1319.140625 L 3057.71875 1319.140625 C 3052.570312 1319.140625 3059.390625 1313.011719 3056.589844 1314.230469 C 3028.558594 1326.414062 3047.039062 1318.917969 3020.359375 1323.410156 C 3009.039062 1325.3125 2997.851562 1328.085938 2986.53125 1329.964844 C 2976.121094 1331.695312 2983.898438 1325.605469 2972.96875 1331.191406 C 2963.570312 1336.003906 2950.359375 1344.699219 2949.238281 1343.476562 C 2946.859375 1340.890625 2957.960938 1331.816406 2955.078125 1330.164062 C 2955.078125 1334.222656 2915.25 1347.824219 2909.878906 1344.902344 C 2908.199219 1343.992188 2914.398438 1340.523438 2914.398438 1339.988281 C 2914.398438 1339.578125 2913.640625 1339.988281 2913.269531 1339.988281 C 2902.480469 1339.988281 2891.21875 1351.5 2880.5 1348.589844 C 2879.78125 1348.394531 2891.800781 1338.652344 2891.800781 1337.53125 C 2891.800781 1336.777344 2883.289062 1339.859375 2882.761719 1339.988281 C 2877.140625 1341.378906 2871.488281 1342.644531 2865.808594 1343.675781 C 2864.691406 1343.875 2863.21875 1344.542969 2862.421875 1343.675781 C 2861.238281 1342.394531 2866.980469 1342.496094 2865.808594 1341.21875 C 2865.269531 1340.640625 2864.28125 1341.042969 2863.550781 1341.21875 C 2859.539062 1342.164062 2855.550781 1343.257812 2851.628906 1344.566406 C 2833.941406 1350.46875 2816.511719 1357.28125 2798.789062 1363.121094 C 2795.410156 1364.238281 2799.78125 1357.546875 2803.371094 1354.515625 C 2803.351562 1354.519531 2803.328125 1354.519531 2803.308594 1354.523438 C 2795.511719 1356.785156 2783.5 1363.121094 2775.058594 1363.121094 C 2769.769531 1363.121094 2745.679688 1367.710938 2745.679688 1365.578125 C 2745.679688 1364.730469 2752.191406 1355.753906 2751.328125 1355.753906 C 2747.640625 1355.753906 2724.800781 1368.640625 2719.691406 1370.492188 C 2715.140625 1372.140625 2719.328125 1368.035156 2716.300781 1368.035156 C 2711.128906 1368.035156 2715.378906 1367.808594 2706.128906 1370.492188 C 2702.421875 1371.566406 2697.550781 1375.902344 2694.828125 1372.949219 C 2693.5 1371.5 2700.101562 1368.035156 2698.21875 1368.035156 C 2688.558594 1368.035156 2647.601562 1388.339844 2641.710938 1390.515625 C 2637.980469 1391.890625 2649.5 1380.136719 2648.488281 1380.6875 C 2634.761719 1388.152344 2608.859375 1400.347656 2591.988281 1401.570312 C 2579.78125 1402.453125 2587.308594 1402.101562 2584.078125 1400.339844 C 2580.199219 1398.238281 2570.609375 1400.339844 2566 1400.339844 C 2561.910156 1400.339844 2567.949219 1393.117188 2564.871094 1394.199219 C 2544.160156 1401.449219 2524.460938 1413.21875 2503.089844 1417.863281 C 2502.710938 1417.945312 2504.320312 1411.832031 2504.21875 1411.722656 C 2503.070312 1410.472656 2485.660156 1417.746094 2478.230469 1419.089844 C 2470.488281 1420.492188 2461.5 1423.464844 2453.371094 1425.234375 C 2446.511719 1426.722656 2449.808594 1425.140625 2447.71875 1424.003906 C 2444.199219 1422.089844 2436.421875 1427.867188 2434.160156 1428.917969 C 2432.941406 1429.484375 2432.949219 1427.351562 2430.769531 1427.6875 C 2420.011719 1429.359375 2427.871094 1427.921875 2418.339844 1431.375 C 2415.480469 1432.410156 2418.898438 1427.746094 2416.078125 1428.917969 C 2409.980469 1431.453125 2403.96875 1434.257812 2397.921875 1436.925781 C 2392.199219 1439.691406 2386.589844 1442.738281 2380.769531 1445.230469 C 2375.839844 1447.339844 2380.28125 1437.507812 2377.378906 1439.085938 C 2364.179688 1446.261719 2352.03125 1454.496094 2337.070312 1456.304688 C 2333.539062 1456.730469 2342.539062 1446.308594 2337.070312 1448.933594 C 2332.421875 1451.164062 2328.160156 1454.316406 2323.5 1456.527344 C 2318.351562 1458.976562 2312.921875 1460.691406 2307.679688 1462.894531 C 2304.328125 1464.300781 2306.570312 1464.855469 2304.28125 1465.351562 C 2301.238281 1466.011719 2298.289062 1467.144531 2295.238281 1467.808594 C 2294.878906 1467.890625 2293.949219 1468.175781 2294.109375 1467.808594 C 2295.058594 1465.742188 2302.539062 1456.164062 2298.628906 1457.980469 C 2289.378906 1462.296875 2281.96875 1466.355469 2273.769531 1472.722656 C 2272.839844 1473.449219 2272.429688 1470.859375 2270.378906 1471.492188 C 2264.660156 1473.273438 2259.140625 1475.773438 2253.429688 1477.636719 C 2250.648438 1478.542969 2254.570312 1475.3125 2250.039062 1476.40625 C 2247.371094 1477.054688 2244.761719 1478.019531 2242.128906 1478.863281 C 2238.359375 1480.066406 2234.648438 1481.511719 2230.828125 1482.546875 C 2230.101562 1482.746094 2229.101562 1483.128906 2228.570312 1482.546875 C 2227.238281 1481.105469 2233.898438 1469.035156 2233.089844 1469.035156 C 2224.121094 1469.035156 2204.691406 1484.265625 2195.839844 1489.074219 C 2194.878906 1489.597656 2194.761719 1489.1875 2194.769531 1488.613281 C 2192.449219 1489.601562 2184.671875 1492.191406 2163.070312 1498.902344 C 2158.878906 1500.203125 2153.789062 1497.972656 2149.511719 1498.902344 C 2144.371094 1500.019531 2132 1506.578125 2129.171875 1507.5 C 2125.898438 1508.566406 2121.410156 1511.351562 2118.988281 1508.730469 C 2118.320312 1507.992188 2120.378906 1503.679688 2117.871094 1505.042969 C 2115.390625 1506.390625 2108.820312 1511.1875 2108.820312 1511.1875 C 2108.230469 1510.539062 2110.710938 1509.140625 2109.949219 1508.730469 C 2107.339844 1507.308594 2092.511719 1511.1875 2089.609375 1511.1875 C 2085.609375 1511.1875 2092.851562 1502.054688 2087.351562 1505.042969 C 2069.988281 1514.480469 2051.488281 1529.175781 2035.519531 1540.484375 C 2033.238281 1542.097656 2031.261719 1544.300781 2028.738281 1545.398438 C 2027.339844 1546.003906 2025.28125 1546.554688 2024.21875 1545.398438 C 2023.148438 1544.238281 2024.21875 1542.121094 2024.21875 1540.484375 C 2024.21875 1538.714844 2023.089844 1535.71875 2023.28125 1534.152344 C 2022.269531 1534.796875 2020.460938 1535.703125 2017.441406 1536.800781 C 2013.710938 1538.152344 2009.789062 1538.898438 2006.140625 1540.484375 C 2003.789062 1541.503906 2001.140625 1546.113281 1999.359375 1544.171875 C 1997.289062 1541.925781 1988.601562 1549.003906 1985.800781 1550.308594 C 1972.199219 1556.644531 1982.46875 1550.050781 1975.628906 1551.539062 C 1969.519531 1552.867188 1964.960938 1555.546875 1959.800781 1558.90625 C 1957.339844 1560.515625 1962.640625 1552.917969 1958.679688 1553.996094 C 1949.828125 1556.398438 1943 1560.671875 1934.941406 1565.050781 C 1932.320312 1566.476562 1935.460938 1561.585938 1932.679688 1562.59375 C 1927.441406 1564.492188 1918.480469 1572.417969 1913.46875 1572.417969 C 1913.140625 1572.417969 1915.121094 1568.074219 1905.558594 1571.191406 C 1902.941406 1572.046875 1900.109375 1574.980469 1897.648438 1573.648438 C 1897.390625 1573.503906 1897.859375 1568.734375 1897.648438 1568.734375 C 1894.070312 1568.734375 1872.21875 1589.273438 1863.75 1593.300781 C 1861.308594 1594.460938 1856.488281 1595.9375 1854.710938 1592.074219 C 1853.871094 1590.242188 1856.460938 1585.171875 1854.710938 1585.929688 C 1846.929688 1589.3125 1836.53125 1595.390625 1829.851562 1600.671875 C 1828.78125 1601.511719 1828.230469 1602.945312 1827.640625 1604.234375 C 1827.691406 1602.328125 1828.691406 1597.40625 1826.460938 1598.214844 C 1817.230469 1601.558594 1812.460938 1604.953125 1804.988281 1611.726562 C 1804.070312 1612.554688 1804.390625 1609.195312 1803.859375 1608.039062 C 1803.820312 1607.957031 1800.898438 1608.9375 1797.078125 1610.496094 C 1793.128906 1612.105469 1785.800781 1613.757812 1782.390625 1615.410156 C 1780.078125 1616.523438 1776.410156 1621.699219 1775.609375 1619.09375 C 1774.890625 1616.765625 1775.609375 1614.179688 1775.609375 1611.726562 C 1775.609375 1611.6875 1775.589844 1611.628906 1775.578125 1611.582031 C 1774.601562 1612.742188 1772.230469 1614.523438 1771.089844 1615.410156 C 1770.011719 1616.242188 1768.738281 1616.808594 1767.789062 1617.800781 C 1767.921875 1616.152344 1768.171875 1614.488281 1767.699219 1612.953125 C 1767.558594 1612.519531 1758.929688 1620.621094 1757.53125 1619.09375 C 1756.230469 1617.691406 1762.570312 1604.109375 1763.179688 1603.128906 C 1763.769531 1602.164062 1766.5 1600.671875 1765.441406 1600.671875 C 1756.828125 1600.671875 1751.121094 1611.105469 1744.449219 1617.015625 C 1729.230469 1630.488281 1718.328125 1642.011719 1700.789062 1650.179688 C 1697.03125 1651.933594 1703.050781 1642.808594 1703.050781 1642.808594 C 1703.75 1641.300781 1699.96875 1643.410156 1698.53125 1644.035156 C 1691.378906 1647.148438 1685.058594 1651.359375 1678.191406 1655.09375 C 1675.46875 1656.566406 1673.320312 1660.003906 1670.28125 1660.003906 C 1667.75 1660.003906 1676.070312 1651.765625 1673.671875 1652.636719 C 1668.691406 1654.4375 1663.890625 1656.777344 1658.980469 1658.777344 C 1655.96875 1660.007812 1652.21875 1664.9375 1649.941406 1662.460938 C 1649.730469 1662.234375 1651.910156 1657.550781 1651.070312 1657.550781 C 1646.628906 1657.550781 1638.421875 1664.746094 1634.121094 1666.144531 C 1632.289062 1666.742188 1630.28125 1665.65625 1628.46875 1666.144531 C 1623.089844 1667.609375 1618.179688 1670.058594 1612.648438 1671.058594 C 1610.261719 1671.492188 1612.46875 1667.246094 1610.390625 1668.601562 C 1602.660156 1673.640625 1598.640625 1681.441406 1590.050781 1685.800781 C 1584.308594 1688.710938 1584.199219 1686.085938 1579.878906 1687.027344 C 1576.898438 1687.675781 1574.449219 1689.359375 1571.96875 1690.710938 C 1570.671875 1691.414062 1567.671875 1690.414062 1566.320312 1690.710938 C 1561.691406 1691.71875 1561.519531 1693.675781 1556.148438 1695.625 C 1552.488281 1696.953125 1544.898438 1694.980469 1541.449219 1696.855469 C 1535.21875 1700.242188 1534.769531 1705.734375 1526.761719 1707.910156 C 1520.851562 1709.515625 1525.210938 1700.660156 1521.109375 1704.222656 C 1515.929688 1708.730469 1515.480469 1712.816406 1508.679688 1715.277344 C 1497.25 1719.421875 1494.640625 1712.394531 1482.691406 1720.191406 C 1468.039062 1729.746094 1457.648438 1748.070312 1444.269531 1759.496094 C 1432.601562 1769.460938 1415.980469 1772.636719 1408.109375 1787.746094 C 1418.769531 1800.3125 1423.179688 1805.070312 1431.171875 1813.761719 C 1433.300781 1816.078125 1432.238281 1821.867188 1434.371094 1824.183594 C 1437.671875 1827.769531 1454.058594 1839.203125 1456.738281 1845.027344 C 1464.019531 1860.84375 1472.761719 1881.570312 1482.308594 1897.140625 C 1486.5 1903.960938 1500.769531 1913.726562 1504.691406 1917.984375 C 1520.238281 1934.886719 1575.140625 1946.84375 1593.140625 1953.015625 C 1696.398438 1988.4375 1805.890625 1996.769531 1912.679688 2009.929688 C 1963.839844 2016.234375 2009.578125 2034.132812 2061.140625 2039.390625 C 2131.988281 2046.617188 2204.261719 2043.3125 2275.328125 2047.160156 C 2300.589844 2048.53125 2325.628906 2053.242188 2350.871094 2054.980469 C 2400.410156 2058.394531 2450.078125 2059.121094 2499.621094 2062.625 C 2521.710938 2064.1875 2543.570312 2068.683594 2565.660156 2070.179688 C 2580.789062 2071.207031 2596.03125 2068.90625 2611.148438 2070.179688 C 2626.75 2071.5 2641.910156 2077.164062 2657.539062 2077.941406 C 2740.550781 2082.066406 2825.710938 2077.941406 2908.921875 2077.941406 L 3740.160156 2077.941406 L 3740.160156 1303.4375 C 3737.640625 1303.433594 3735.101562 1303.386719 3732.359375 1303.175781 C 3732.011719 1303.148438 3721.738281 1302.6875 3721.058594 1301.945312 C 3720.300781 1301.121094 3722.351562 1298.613281 3719.929688 1299.488281 C 3717.441406 1300.390625 3708.328125 1304.085938 3706.371094 1301.945312 C 3704.738281 1300.183594 3708.628906 1298.523438 3708.628906 1297.035156 C 3708.628906 1294.652344 3686.820312 1301.804688 3686.03125 1301.945312 C 3678.449219 1303.320312 3686.519531 1293.992188 3681.511719 1295.804688 C 3678.78125 1296.792969 3675.640625 1298.507812 3672.46875 1299.488281 C 3671.011719 1299.941406 3651.171875 1300.910156 3650.988281 1300.71875 C 3646.488281 1295.824219 3655.75 1292.429688 3643.078125 1289.664062 C 3643.078125 1296.226562 3619.738281 1295.804688 3614.828125 1295.804688 C 3607.890625 1295.804688 3591.480469 1299.902344 3591.101562 1299.488281 C 3588.550781 1296.710938 3593.640625 1294.578125 3587.710938 1294.578125 C 3584.648438 1294.578125 3558.980469 1293.703125 3558.328125 1293.347656 C 3556.851562 1292.542969 3559.601562 1288.585938 3559.460938 1288.4375 Z M 1775.578125 1611.582031 C 1776.089844 1610.976562 1776.339844 1610.496094 1775.609375 1610.496094 C 1775.261719 1610.496094 1775.519531 1611.152344 1775.578125 1611.582031 Z M 2023.28125 1534.152344 C 2024.308594 1533.496094 2024.511719 1533.113281 2024.21875 1533.113281 C 2023.589844 1533.113281 2023.351562 1533.546875 2023.28125 1534.152344 Z M 2194.769531 1488.613281 C 2196.078125 1488.058594 2196.121094 1487.875 2194.769531 1488.09375 C 2194.738281 1488.300781 2194.769531 1488.4375 2194.769531 1488.613281 Z M 2194.769531 1488.09375 C 2194.878906 1487.144531 2195.019531 1486.097656 2193.578125 1486.617188 C 2182.078125 1490.785156 2191.058594 1488.691406 2194.769531 1488.09375 Z M 2803.371094 1354.515625 C 2804.539062 1354.191406 2807.539062 1354.203125 2806.699219 1353.296875 C 2806.058594 1352.601562 2804.78125 1353.320312 2803.371094 1354.515625 Z M 3127.230469 1311.003906 C 3127.699219 1310.914062 3128.578125 1310.546875 3128.910156 1310.546875 C 3129.289062 1310.546875 3128.121094 1310.359375 3127.78125 1310.546875 C 3127.710938 1310.585938 3127.328125 1310.9375 3127.230469 1311.003906 Z M 3166.859375 1313.144531 C 3167.011719 1313.070312 3167.179688 1313.082031 3167.328125 1313 C 3167.671875 1312.816406 3167.710938 1311.773438 3167.328125 1311.773438 C 3166.898438 1311.773438 3166.789062 1312.464844 3166.859375 1313.144531 Z M 1827.628906 1604.707031 C 1827.679688 1605.105469 1827.878906 1605.582031 1827.589844 1605.582031 C 1827.511719 1605.582031 1827.640625 1604.878906 1827.628906 1604.707031 "/>
<path fill-rule="nonzero" fill="rgb(44.309998%, 78.514099%, 21.556091%)" fill-opacity="1" d="M 1619.011719 1363.4375 C 1618.878906 1363.578125 1621.628906 1367.21875 1620.140625 1367.960938 C 1619.488281 1368.285156 1593.828125 1369.089844 1590.761719 1369.089844 C 1584.828125 1369.089844 1589.929688 1371.050781 1587.371094 1373.609375 C 1586.988281 1373.988281 1570.589844 1370.21875 1563.640625 1370.21875 C 1558.738281 1370.21875 1535.390625 1370.605469 1535.390625 1364.570312 C 1522.730469 1367.113281 1531.980469 1370.238281 1527.480469 1374.738281 C 1527.300781 1374.917969 1507.46875 1374.023438 1506.011719 1373.609375 C 1502.839844 1372.703125 1499.691406 1371.128906 1496.96875 1370.21875 C 1491.960938 1368.550781 1500.019531 1377.132812 1492.449219 1375.867188 C 1491.648438 1375.738281 1469.851562 1369.160156 1469.851562 1371.347656 C 1469.851562 1372.71875 1473.730469 1374.246094 1472.109375 1375.867188 C 1470.140625 1377.835938 1461.03125 1374.4375 1458.550781 1373.609375 C 1456.128906 1372.800781 1458.179688 1375.109375 1457.421875 1375.867188 C 1456.730469 1376.550781 1446.460938 1376.976562 1446.121094 1377 C 1433.148438 1377.925781 1423.148438 1376.625 1411.078125 1373.609375 C 1395.859375 1369.804688 1413.519531 1386.097656 1403.171875 1382.648438 C 1391.511719 1378.761719 1377.710938 1378.828125 1365.878906 1375.867188 C 1358.519531 1374.027344 1362.058594 1376.300781 1360.230469 1378.128906 C 1358.96875 1379.390625 1351.351562 1377.183594 1350.058594 1377 C 1346.949219 1376.554688 1336.980469 1370.867188 1334.238281 1373.609375 C 1333.109375 1374.738281 1335.371094 1379.257812 1334.238281 1380.390625 C 1332.550781 1382.085938 1325.761719 1378.695312 1324.070312 1380.390625 C 1323.5 1380.953125 1323.511719 1382.085938 1322.941406 1382.648438 C 1322.410156 1383.183594 1321.429688 1382.648438 1320.679688 1382.648438 C 1310.769531 1382.648438 1298.871094 1384.054688 1289.039062 1382.648438 C 1287.300781 1382.402344 1279.359375 1378.769531 1277.738281 1380.390625 C 1276.128906 1382.003906 1281.648438 1386.34375 1280 1387.171875 C 1273.351562 1390.496094 1238.449219 1384.574219 1233.671875 1383.777344 C 1233.410156 1383.738281 1227.910156 1381.625 1226.890625 1382.648438 C 1225.941406 1383.59375 1227.828125 1387.359375 1226.890625 1388.300781 C 1225.679688 1389.511719 1187.308594 1389.429688 1183.941406 1389.429688 C 1182.699219 1389.429688 1176.460938 1387.875 1176.03125 1388.300781 C 1173.960938 1390.378906 1179.238281 1396.394531 1177.160156 1398.46875 C 1175.339844 1400.289062 1156.058594 1396.710938 1154.558594 1396.210938 C 1150.339844 1394.804688 1152.71875 1398.46875 1147.78125 1398.46875 C 1141.558594 1398.46875 1110.128906 1396.332031 1103.710938 1398.46875 C 1101.210938 1399.304688 1103.648438 1400.792969 1102.578125 1401.859375 C 1100.101562 1404.335938 1076.398438 1400.730469 1070.941406 1400.730469 C 1049.421875 1404.714844 1077.261719 1408.328125 1073.699219 1410.109375 C 1069.050781 1412.433594 1045.710938 1407.585938 1043.179688 1410.109375 C 1041.328125 1411.96875 1045.648438 1414.941406 1044.75 1417.277344 C 1041.988281 1417.664062 1039.238281 1418.054688 1036.480469 1418.449219 C 1034.640625 1418.292969 1032.589844 1418.109375 1031.878906 1418.019531 C 1031.628906 1417.988281 1011.699219 1414.46875 1011.539062 1414.628906 C 1010.390625 1415.78125 1012.789062 1416.832031 1010.410156 1418.019531 C 1007.238281 1419.605469 992.925781 1418.019531 988.941406 1418.019531 C 985.964844 1418.019531 989.164062 1421.183594 987.8125 1422.539062 C 987.777344 1422.574219 963.320312 1422.832031 960.691406 1422.539062 C 949.855469 1421.335938 957.90625 1421.410156 953.910156 1421.410156 C 953.15625 1421.410156 951.648438 1422.164062 951.648438 1421.410156 C 951.648438 1420.957031 960.589844 1427.160156 958.429688 1429.320312 C 957.632812 1430.117188 956.171875 1429.320312 955.039062 1429.320312 C 949.21875 1429.320312 929.613281 1429.742188 923.398438 1428.191406 C 922.582031 1427.984375 921.890625 1427.4375 921.136719 1427.058594 C 918.125 1426.683594 915.121094 1426.183594 912.097656 1425.929688 C 910.457031 1425.792969 900.789062 1424.730469 898.1875 1424.027344 C 900.347656 1425.46875 903.207031 1429.269531 903.058594 1429.320312 C 899.894531 1430.375 890.535156 1427.152344 888.367188 1429.320312 C 887.378906 1430.308594 889.496094 1431.140625 889.496094 1431.578125 C 889.496094 1431.839844 870.40625 1430.6875 871.414062 1432.710938 C 872.042969 1433.96875 875.9375 1435.183594 875.9375 1436.101562 C 875.9375 1437.605469 872.921875 1436.101562 871.414062 1436.101562 L 853.335938 1436.101562 C 846.695312 1436.101562 856.226562 1442.246094 854.464844 1444.011719 C 852.394531 1446.078125 841.164062 1443.242188 838.644531 1442.882812 C 836.007812 1442.503906 832.617188 1439.867188 830.734375 1441.75 C 826.964844 1445.519531 817.605469 1441.316406 813.78125 1445.140625 C 812.300781 1446.621094 813.117188 1448.296875 810.394531 1449.660156 C 802.828125 1453.441406 790.519531 1450.789062 782.140625 1450.789062 C 776.820312 1454.925781 789.539062 1458.082031 787.789062 1459.832031 C 785.722656 1461.902344 769.855469 1456.945312 766.320312 1456.441406 C 756.109375 1454.984375 766 1460.984375 751.628906 1462.089844 C 747.785156 1462.386719 717.527344 1461.160156 716.597656 1462.089844 C 715.363281 1463.328125 727.898438 1469.429688 727.898438 1470.003906 C 727.898438 1471.582031 707.335938 1469.320312 705.296875 1473.394531 C 703.867188 1476.25 692.273438 1476.316406 689.476562 1476.78125 C 683.753906 1477.734375 683.875 1477.863281 681.566406 1480.171875 C 679.300781 1482.4375 657.84375 1477.90625 655.574219 1480.171875 C 654.355469 1481.390625 657.605469 1484.242188 656.703125 1484.691406 C 650.105469 1487.992188 626.445312 1481.972656 618.285156 1484.691406 C 609.960938 1487.46875 636.1875 1495.039062 634.105469 1497.121094 C 630.714844 1500.511719 617.152344 1493.734375 613.765625 1497.121094 C 609.804688 1501.085938 586.570312 1497.195312 584.382812 1499.382812 C 582.425781 1501.339844 591.894531 1505.03125 587.769531 1505.03125 C 579.660156 1505.03125 575.425781 1508.6875 567.429688 1510.683594 C 566.835938 1510.835938 560.207031 1511.128906 559.519531 1511.8125 C 558.636719 1512.695312 562.910156 1513.707031 562.910156 1514.074219 C 562.910156 1515.203125 560.648438 1514.074219 559.519531 1514.074219 C 553.457031 1514.074219 547.550781 1515.203125 541.441406 1515.203125 C 538.164062 1515.203125 505.277344 1515.234375 505.277344 1517.464844 C 505.277344 1518.6875 526.621094 1524.246094 519.96875 1524.246094 C 512.328125 1524.246094 502.582031 1524.636719 495.109375 1526.503906 C 490.515625 1527.652344 502.746094 1529.117188 495.109375 1531.023438 C 489.992188 1532.304688 484.472656 1533.378906 479.285156 1534.414062 C 479.183594 1534.433594 475.085938 1534.097656 474.765625 1534.414062 C 473.917969 1535.261719 482.8125 1537.761719 479.285156 1538.9375 C 466.691406 1543.132812 452.386719 1542.628906 439.734375 1546.847656 C 429.101562 1550.390625 422.003906 1555.277344 412.613281 1561.535156 C 412.316406 1561.734375 409.332031 1562.71875 406.648438 1563.402344 C 412.933594 1563.996094 424.339844 1566.574219 426.175781 1567.1875 C 426.550781 1567.3125 426.96875 1567.449219 427.367188 1567.585938 C 426.621094 1567.859375 425.894531 1568.15625 425.148438 1568.429688 C 412.328125 1568.679688 389.707031 1569.753906 385.492188 1573.96875 C 382.464844 1576.996094 371.453125 1571.945312 367.410156 1573.96875 C 365.925781 1574.710938 364.421875 1575.71875 362.890625 1576.226562 C 362.664062 1576.304688 358.746094 1575.851562 358.371094 1576.226562 C 355.851562 1578.746094 368.539062 1579.828125 368.539062 1581.878906 C 368.539062 1582.632812 367.035156 1581.878906 366.28125 1581.878906 C 364.671875 1581.878906 360.59375 1583.042969 359.5 1584.136719 C 357.164062 1586.476562 365.855469 1592.046875 353.851562 1592.046875 C 341.585938 1592.046875 329.433594 1593.324219 318.820312 1599.957031 C 317.921875 1600.519531 312.332031 1603.851562 308.613281 1605.335938 C 313.777344 1605.464844 322.417969 1606.667969 315.429688 1609 C 309.285156 1611.046875 274.816406 1610.058594 273.617188 1611.257812 C 273.082031 1611.796875 281.21875 1614.132812 279.269531 1618.035156 C 278.855469 1618.863281 264.378906 1626.390625 262.316406 1627.078125 C 257.738281 1628.605469 252.738281 1631.871094 248.753906 1633.859375 C 248.460938 1634.007812 246.847656 1635.339844 247.625 1636.117188 C 247.894531 1636.386719 249.125 1636.046875 248.753906 1636.117188 C 246.507812 1636.566406 244.148438 1636.523438 241.976562 1637.25 C 240.6875 1637.679688 239.917969 1639.242188 238.585938 1639.511719 C 230.382812 1641.148438 221.992188 1641.628906 213.726562 1642.898438 C 211.492188 1643.242188 208.542969 1641.300781 206.945312 1642.898438 C 203.53125 1646.3125 221.753906 1651.820312 220.503906 1653.070312 C 220.046875 1653.527344 190.300781 1656.175781 188.863281 1656.460938 C 173.671875 1659.5 198.710938 1660.578125 193.382812 1663.242188 C 184.507812 1667.679688 169.125 1665.476562 160.609375 1671.152344 C 156.515625 1673.882812 163.695312 1675.15625 162.871094 1676.800781 C 161.449219 1679.648438 156.117188 1677.90625 153.832031 1680.191406 C 153.265625 1680.753906 154.398438 1683.015625 153.832031 1683.578125 C 152.46875 1684.945312 116.6875 1685.769531 109.757812 1689.234375 C 107.855469 1690.1875 102.167969 1687.785156 100.71875 1689.234375 C 99.714844 1690.234375 107.5 1689.941406 107.5 1691.492188 C 107.5 1694.070312 101.652344 1694.195312 99.589844 1694.882812 C 92.578125 1697.21875 102.046875 1698.273438 99.589844 1698.273438 C 93.769531 1698.273438 90.109375 1702.1875 84.898438 1703.921875 C 83.46875 1704.398438 79.03125 1703.246094 80.378906 1703.921875 C 82.632812 1705.050781 87.945312 1705.742188 86.027344 1709.574219 C 85.261719 1711.109375 77.707031 1714.609375 75.859375 1715.222656 C 75.539062 1715.328125 73.597656 1716.53125 73.597656 1716.351562 C 73.597656 1716.160156 82.960938 1720.871094 82.636719 1720.871094 C 80.902344 1720.871094 50.996094 1724.765625 50.996094 1727.652344 C 50.996094 1728.539062 64.6875 1733.175781 63.425781 1734.433594 C 59.019531 1738.84375 62.820312 1734.171875 60.035156 1735.5625 C 54.101562 1738.53125 58.882812 1737.84375 55.519531 1740.085938 C 53.285156 1741.574219 52.75 1740.339844 50.996094 1741.214844 C 50.519531 1741.453125 50.242188 1741.96875 49.867188 1742.34375 C 47.605469 1743.476562 45.460938 1744.871094 43.085938 1745.734375 C 35.550781 1748.472656 24.632812 1748.367188 19.355469 1753.644531 C 18.25 1754.75 15.222656 1754.519531 12.054688 1754.125 L 12.054688 2237.25 L 3740.160156 2237.25 L 3740.160156 1794.46875 C 3735.179688 1792.558594 3730.378906 1790.585938 3725.378906 1788.679688 C 3715.839844 1778.929688 3707.058594 1767.4375 3695.78125 1760.667969 C 3683.828125 1753.496094 3681.230469 1759.960938 3669.789062 1756.148438 C 3663 1753.882812 3662.550781 1750.125 3657.359375 1745.976562 C 3653.261719 1742.699219 3657.621094 1750.84375 3651.710938 1749.367188 C 3643.710938 1747.367188 3643.261719 1742.316406 3637.019531 1739.195312 C 3633.570312 1737.472656 3625.988281 1739.285156 3622.328125 1738.066406 C 3616.949219 1736.273438 3616.78125 1734.472656 3612.160156 1733.546875 C 3610.808594 1733.273438 3607.800781 1734.191406 3606.511719 1733.546875 C 3604.019531 1732.304688 3601.570312 1730.75 3598.601562 1730.15625 C 3594.28125 1729.289062 3594.171875 1731.703125 3588.429688 1729.023438 C 3579.839844 1725.015625 3575.808594 1717.839844 3568.089844 1713.207031 C 3566.011719 1711.957031 3568.210938 1715.863281 3565.828125 1715.464844 C 3560.300781 1714.542969 3555.378906 1712.289062 3550.011719 1710.945312 C 3548.199219 1710.492188 3546.179688 1711.492188 3544.359375 1710.945312 C 3540.058594 1709.65625 3531.839844 1703.035156 3527.410156 1703.035156 C 3526.570312 1703.035156 3528.75 1707.34375 3528.539062 1707.554688 C 3526.261719 1709.832031 3522.511719 1705.296875 3519.5 1704.164062 C 3514.578125 1702.324219 3509.78125 1700.175781 3504.800781 1698.515625 C 3502.410156 1697.714844 3510.71875 1705.292969 3508.199219 1705.292969 C 3505.160156 1705.292969 3503 1702.132812 3500.289062 1700.777344 C 3493.421875 1697.339844 3487.101562 1693.46875 3479.941406 1690.605469 C 3478.5 1690.027344 3474.730469 1688.085938 3475.421875 1689.476562 C 3475.429688 1689.484375 3481.449219 1697.871094 3477.679688 1696.253906 C 3460.140625 1688.738281 3449.25 1678.140625 3434.03125 1665.742188 C 3427.359375 1660.304688 3421.648438 1650.703125 3413.039062 1650.703125 C 3411.96875 1650.703125 3414.710938 1652.078125 3415.300781 1652.964844 C 3415.898438 1653.867188 3422.238281 1666.363281 3420.949219 1667.65625 C 3419.539062 1669.0625 3410.910156 1661.609375 3410.78125 1662.007812 C 3410.308594 1663.421875 3410.550781 1664.949219 3410.691406 1666.464844 C 3409.730469 1665.554688 3408.460938 1665.03125 3407.390625 1664.265625 C 3406.25 1663.449219 3403.878906 1661.8125 3402.890625 1660.746094 C 3402.890625 1660.785156 3402.871094 1660.839844 3402.871094 1660.871094 C 3402.871094 1663.132812 3403.578125 1665.511719 3402.871094 1667.652344 C 3402.070312 1670.050781 3398.390625 1665.289062 3396.089844 1664.261719 C 3392.671875 1662.746094 3385.339844 1661.226562 3381.390625 1659.742188 C 3377.570312 1658.308594 3374.648438 1657.410156 3374.609375 1657.484375 C 3374.078125 1658.550781 3374.398438 1661.636719 3373.480469 1660.871094 C 3366.011719 1654.644531 3361.238281 1651.519531 3352.011719 1648.441406 C 3349.789062 1647.699219 3350.78125 1652.230469 3350.828125 1653.984375 C 3350.238281 1652.796875 3349.691406 1651.480469 3348.621094 1650.703125 C 3341.941406 1645.847656 3331.539062 1640.253906 3323.761719 1637.144531 C 3322.011719 1636.441406 3324.601562 1641.109375 3323.761719 1642.792969 C 3321.980469 1646.351562 3317.160156 1644.992188 3314.71875 1643.921875 C 3306.25 1640.21875 3284.398438 1621.320312 3280.820312 1621.320312 C 3280.621094 1621.320312 3281.089844 1625.710938 3280.820312 1625.84375 C 3278.371094 1627.066406 3275.539062 1624.371094 3272.910156 1623.582031 C 3263.351562 1620.714844 3265.328125 1624.710938 3265 1624.710938 C 3259.988281 1624.710938 3251.03125 1617.417969 3245.789062 1615.671875 C 3243.011719 1614.746094 3246.148438 1619.242188 3243.53125 1617.933594 C 3235.46875 1613.902344 3228.640625 1609.972656 3219.800781 1607.761719 C 3215.828125 1606.769531 3221.128906 1613.757812 3218.671875 1612.28125 C 3213.511719 1609.1875 3208.949219 1606.722656 3202.851562 1605.5 C 3196 1604.132812 3206.269531 1610.199219 3192.679688 1604.371094 C 3189.871094 1603.171875 3181.179688 1596.65625 3179.121094 1598.71875 C 3177.328125 1600.507812 3174.679688 1596.269531 3172.328125 1595.328125 C 3168.679688 1593.871094 3164.769531 1593.183594 3161.039062 1591.941406 C 3158.011719 1590.933594 3156.210938 1590.097656 3155.191406 1589.507812 C 3155.378906 1590.945312 3154.25 1593.703125 3154.25 1595.328125 C 3154.25 1596.835938 3155.320312 1598.785156 3154.25 1599.851562 C 3153.191406 1600.917969 3151.128906 1600.410156 3149.730469 1599.851562 C 3147.210938 1598.84375 3145.230469 1596.8125 3142.949219 1595.328125 C 3126.980469 1584.925781 3108.480469 1571.40625 3091.121094 1562.726562 C 3085.621094 1559.972656 3092.859375 1568.375 3088.859375 1568.375 C 3085.960938 1568.375 3071.128906 1564.808594 3068.519531 1566.113281 C 3067.761719 1566.492188 3070.238281 1567.777344 3069.648438 1568.375 C 3069.640625 1568.386719 3063.089844 1563.964844 3060.609375 1562.726562 C 3058.089844 1561.46875 3060.160156 1565.4375 3059.480469 1566.113281 C 3057.070312 1568.527344 3052.570312 1565.964844 3049.308594 1564.984375 C 3046.480469 1564.136719 3034.101562 1558.101562 3028.96875 1557.074219 C 3024.679688 1556.214844 3019.589844 1558.269531 3015.398438 1557.074219 C 2993.789062 1550.898438 2986.019531 1548.515625 2983.699219 1547.605469 C 2983.71875 1548.136719 2983.601562 1548.515625 2982.628906 1548.035156 C 2973.78125 1543.609375 2954.351562 1529.597656 2945.378906 1529.597656 C 2944.570312 1529.597656 2951.230469 1540.699219 2949.898438 1542.027344 C 2949.371094 1542.558594 2948.371094 1542.210938 2947.640625 1542.027344 C 2943.828125 1541.074219 2940.109375 1539.746094 2936.339844 1538.636719 C 2933.710938 1537.863281 2931.109375 1536.972656 2928.429688 1536.378906 C 2923.898438 1535.371094 2927.820312 1538.339844 2925.039062 1537.507812 C 2919.339844 1535.796875 2913.820312 1533.492188 2908.089844 1531.855469 C 2906.039062 1531.273438 2905.640625 1533.65625 2904.699219 1532.984375 C 2896.5 1527.128906 2889.101562 1523.394531 2879.839844 1519.425781 C 2875.929688 1517.753906 2883.410156 1526.566406 2884.359375 1528.464844 C 2884.53125 1528.804688 2883.601562 1528.539062 2883.230469 1528.464844 C 2880.179688 1527.855469 2877.230469 1526.816406 2874.191406 1526.207031 C 2871.898438 1525.75 2874.140625 1525.238281 2870.800781 1523.945312 C 2865.550781 1521.917969 2860.128906 1520.339844 2854.96875 1518.089844 C 2850.308594 1516.050781 2846.058594 1513.152344 2841.398438 1511.097656 C 2835.941406 1508.683594 2844.929688 1518.273438 2841.398438 1517.878906 C 2826.441406 1516.21875 2814.289062 1508.640625 2801.089844 1502.042969 C 2798.191406 1500.589844 2802.628906 1509.632812 2797.699219 1507.691406 C 2791.878906 1505.398438 2786.269531 1502.601562 2780.550781 1500.054688 C 2774.5 1497.597656 2768.5 1495.015625 2762.390625 1492.683594 C 2759.578125 1491.609375 2762.988281 1495.898438 2760.128906 1494.945312 C 2750.601562 1491.769531 2758.460938 1493.09375 2747.699219 1491.554688 C 2745.519531 1491.242188 2745.53125 1493.207031 2744.308594 1492.683594 C 2742.058594 1491.71875 2734.28125 1486.402344 2730.75 1488.164062 C 2728.660156 1489.210938 2731.960938 1490.664062 2725.101562 1489.296875 C 2716.96875 1487.667969 2707.980469 1484.9375 2700.238281 1483.644531 C 2692.808594 1482.40625 2675.398438 1475.710938 2674.25 1476.863281 C 2674.148438 1476.964844 2675.769531 1482.589844 2675.378906 1482.515625 C 2654.011719 1478.242188 2634.308594 1467.414062 2613.609375 1460.742188 C 2610.519531 1459.75 2616.558594 1466.394531 2612.46875 1466.394531 C 2607.859375 1466.394531 2598.269531 1464.457031 2594.390625 1466.394531 C 2591.160156 1468.011719 2598.691406 1468.335938 2586.480469 1467.523438 C 2569.609375 1466.398438 2543.710938 1455.179688 2529.980469 1448.3125 C 2528.96875 1447.808594 2540.488281 1458.617188 2536.761719 1457.351562 C 2530.871094 1455.351562 2489.921875 1436.671875 2480.25 1436.671875 C 2478.371094 1436.671875 2484.96875 1439.859375 2483.640625 1441.191406 C 2480.929688 1443.90625 2476.050781 1439.921875 2472.339844 1438.929688 C 2463.089844 1436.464844 2467.339844 1436.671875 2462.171875 1436.671875 C 2459.140625 1436.671875 2463.328125 1440.449219 2458.78125 1438.929688 C 2453.671875 1437.226562 2430.828125 1425.371094 2427.140625 1425.371094 C 2426.28125 1425.371094 2432.789062 1433.628906 2432.789062 1434.410156 C 2432.789062 1436.371094 2408.710938 1432.152344 2403.410156 1432.152344 C 2394.96875 1432.152344 2382.960938 1426.320312 2375.160156 1424.238281 C 2375.148438 1424.234375 2375.121094 1424.234375 2375.109375 1424.230469 C 2378.691406 1427.015625 2383.070312 1433.175781 2379.679688 1432.148438 C 2361.96875 1426.777344 2344.53125 1420.511719 2326.839844 1415.078125 C 2322.921875 1413.875 2318.929688 1412.867188 2314.929688 1411.996094 C 2314.191406 1411.835938 2313.199219 1411.464844 2312.671875 1411.996094 C 2311.488281 1413.175781 2317.230469 1413.078125 2316.058594 1414.257812 C 2315.261719 1415.054688 2313.78125 1414.441406 2312.671875 1414.257812 C 2306.980469 1413.308594 2301.328125 1412.144531 2295.710938 1410.867188 C 2295.179688 1410.746094 2286.671875 1407.910156 2286.671875 1408.605469 C 2286.671875 1409.636719 2298.691406 1418.597656 2297.980469 1418.777344 C 2287.25 1421.457031 2275.988281 1410.867188 2265.199219 1410.867188 C 2264.828125 1410.867188 2264.070312 1410.492188 2264.070312 1410.867188 C 2264.070312 1411.355469 2270.269531 1414.550781 2268.589844 1415.386719 C 2263.21875 1418.074219 2223.390625 1405.5625 2223.390625 1401.824219 C 2220.511719 1403.347656 2231.609375 1411.695312 2229.230469 1414.074219 C 2228.109375 1415.199219 2214.910156 1407.203125 2205.5 1402.773438 C 2194.578125 1397.632812 2202.351562 1403.234375 2191.941406 1401.644531 C 2180.621094 1399.914062 2169.429688 1397.367188 2158.121094 1395.613281 C 2131.429688 1391.480469 2149.910156 1398.378906 2121.878906 1387.167969 C 2119.078125 1386.046875 2125.898438 1391.6875 2120.761719 1391.6875 L 2106.058594 1391.6875 C 2096.320312 1391.6875 2091.289062 1393.917969 2081.199219 1390.558594 C 2079.378906 1389.949219 2074.691406 1387.710938 2075.550781 1389.429688 C 2076.269531 1390.855469 2080.070312 1391.6875 2078.941406 1392.816406 C 2077.390625 1394.367188 2058 1385.402344 2051.238281 1384.199219 C 2053.511719 1385.566406 2062.289062 1392.515625 2060.859375 1393.945312 C 2059.589844 1395.214844 2042.519531 1391.128906 2040.519531 1390.558594 C 2035.128906 1389.015625 2028.589844 1389.320312 2022.441406 1388.296875 C 2018.808594 1387.691406 2014.949219 1387.667969 2011.621094 1386.167969 C 2011.570312 1386.628906 2011.460938 1387.113281 2011.140625 1387.167969 C 2005.570312 1388.097656 1999.78125 1387.964844 1994.191406 1387.167969 C 1985.46875 1385.921875 1975.851562 1379.695312 1968.199219 1375.867188 C 1965.988281 1374.761719 1967.621094 1377.570312 1967.070312 1378.128906 C 1965.46875 1379.726562 1962.519531 1378.46875 1960.289062 1378.128906 C 1938.460938 1374.769531 1957.269531 1377.496094 1948.988281 1374.738281 C 1946.621094 1373.949219 1949.179688 1376.996094 1946.730469 1376.996094 C 1943.550781 1376.996094 1937.058594 1375.617188 1934.300781 1376.996094 C 1934.199219 1377.042969 1934.140625 1381.289062 1934.300781 1381.492188 C 1928.390625 1381.488281 1914.921875 1381.433594 1910.558594 1379.257812 C 1906.980469 1377.460938 1884.609375 1371.308594 1882.308594 1373.605469 C 1881.011719 1374.910156 1890.148438 1384.328125 1886.828125 1383.777344 C 1876.738281 1382.09375 1885.160156 1383.53125 1873.269531 1378.128906 C 1867.730469 1375.609375 1867.25 1378.546875 1865.359375 1378.128906 C 1858.488281 1376.597656 1851.640625 1374.679688 1845.019531 1372.476562 C 1842.199219 1371.535156 1845.640625 1375.457031 1842.761719 1374.738281 C 1831.480469 1371.917969 1820.609375 1366.828125 1808.859375 1366.828125 C 1799.429688 1365.300781 1813.738281 1375.503906 1811.121094 1378.128906 C 1810.320312 1378.925781 1808.859375 1378.128906 1807.730469 1378.128906 C 1803.839844 1378.128906 1780.910156 1377.828125 1780.609375 1378.128906 C 1779.261719 1379.476562 1783.679688 1380.324219 1778.351562 1379.257812 C 1774.441406 1378.472656 1768.449219 1374.660156 1765.921875 1373.605469 C 1762.5 1372.183594 1758.191406 1370.277344 1754.621094 1369.085938 C 1751.550781 1368.0625 1756.738281 1371.347656 1753.488281 1371.347656 L 1738.800781 1371.347656 C 1738.039062 1371.347656 1736.539062 1370.59375 1736.539062 1371.347656 C 1736.539062 1372.71875 1739.191406 1374.238281 1735.410156 1373.605469 C 1730.269531 1372.75 1726.730469 1371.4375 1721.851562 1370.214844 C 1718.878906 1369.472656 1714.480469 1370.617188 1711.679688 1370.214844 C 1708.148438 1369.710938 1704.078125 1368.574219 1700.371094 1367.957031 C 1696.539062 1367.316406 1698.421875 1368.777344 1696.988281 1370.214844 C 1696.199219 1371.003906 1686.671875 1370.3125 1685.679688 1370.214844 C 1684.53125 1370.101562 1674.03125 1367.183594 1673.25 1367.957031 C 1672.101562 1369.109375 1674.5 1370.160156 1672.121094 1371.347656 C 1666.089844 1374.363281 1657.769531 1372.214844 1651.78125 1370.214844 C 1648.769531 1369.210938 1652.160156 1370.84375 1650.648438 1371.347656 C 1648.148438 1372.179688 1645.300781 1371.984375 1642.738281 1371.347656 C 1640.121094 1370.691406 1619.679688 1362.765625 1619.011719 1363.4375 Z M 2011.621094 1386.167969 C 2011.679688 1385.542969 2011.570312 1384.90625 2011.140625 1384.90625 C 2010.761719 1384.90625 2010.800781 1385.867188 2011.140625 1386.035156 C 2011.289062 1386.109375 2011.46875 1386.101562 2011.621094 1386.167969 Z M 2051.238281 1384.199219 C 2051.140625 1384.140625 2050.769531 1383.8125 2050.691406 1383.777344 C 2050.359375 1383.609375 2049.179688 1383.777344 2049.558594 1383.777344 C 2049.890625 1383.777344 2050.78125 1384.117188 2051.238281 1384.199219 Z M 2375.109375 1424.230469 C 2373.699219 1423.132812 2372.410156 1422.46875 2371.769531 1423.109375 C 2370.929688 1423.941406 2373.929688 1423.933594 2375.109375 1424.230469 Z M 897.089844 1423.492188 C 896.761719 1423.414062 896.480469 1423.457031 896.273438 1423.667969 C 896.1875 1423.753906 897.769531 1423.914062 898.183594 1424.023438 C 897.789062 1423.761719 897.414062 1423.566406 897.089844 1423.492188 Z M 2984.890625 1545.773438 C 2983.449219 1545.289062 2983.589844 1546.257812 2983.699219 1547.128906 C 2987.410156 1547.679688 2996.390625 1549.605469 2984.890625 1545.773438 Z M 2983.699219 1547.128906 C 2982.359375 1546.929688 2982.398438 1547.09375 2983.699219 1547.605469 C 2983.699219 1547.441406 2983.730469 1547.316406 2983.699219 1547.128906 Z M 403.636719 1563.28125 C 402.886719 1563.332031 402.441406 1563.488281 402.441406 1563.792969 C 402.441406 1564.332031 404.453125 1563.957031 406.644531 1563.398438 C 405.433594 1563.285156 404.382812 1563.230469 403.636719 1563.28125 Z M 3154.25 1588.546875 C 3153.960938 1588.546875 3154.160156 1588.902344 3155.191406 1589.503906 C 3155.121094 1588.945312 3154.890625 1588.546875 3154.25 1588.546875 Z M 308.613281 1605.332031 C 306.71875 1605.285156 305.257812 1605.355469 305.257812 1605.605469 C 305.257812 1606.472656 306.761719 1606.066406 308.613281 1605.332031 Z M 3402.859375 1659.742188 C 3402.128906 1659.742188 3402.378906 1660.1875 3402.890625 1660.742188 C 3402.941406 1660.347656 3403.210938 1659.742188 3402.859375 1659.742188 "/>
</svg>
